<?xml version="1.0" encoding="UTF-8"?>
<svg width="120" height="60" viewBox="0 0 120 60" xmlns="http://www.w3.org/2000/svg" xmlns:xlink="http://www.w3.org/1999/xlink" version="1.1">
<g id="surface1">
<path style=" stroke:none;fill-rule:nonzero;fill:rgb(8.235294%,49.411765%,73.333333%);fill-opacity:1;" d="M 11.085938 9.472656 C 14.644531 7.53125 18.574219 7.511719 22.277344 8.503906 C 24.667969 9.0625 26.882812 10.515625 29.070312 11.933594 C 29.136719 14.523438 29.070312 17.113281 29.113281 19.699219 C 28.605469 19.792969 28.246094 19.234375 27.871094 18.867188 C 25.5625 16.226562 22.804688 14.371094 19.875 13.722656 C 17.242188 13.304688 14.46875 13.511719 12.089844 15.320312 C 9.382812 17.34375 7.660156 21.320312 6.875 25.425781 C 5.816406 31.503906 5.917969 38.320312 8.128906 43.871094 C 9.5625 47.703125 12.34375 50.339844 15.320312 51.070312 C 19.855469 52.332031 24.648438 50.027344 28.128906 45.835938 C 28.398438 45.5 28.726562 45.296875 29.050781 45.101562 C 29.15625 47.679688 29.078125 50.257812 29.09375 52.832031 C 25.800781 55.179688 22.230469 57.027344 18.503906 57.042969 C 14.285156 57.304688 9.742188 56.019531 6.554688 51.820312 C 3.628906 48.199219 2.160156 42.773438 1.667969 37.410156 C 1.261719 31.359375 1.453125 24.984375 3.375 19.4375 C 4.914062 14.859375 7.753906 11.242188 11.085938 9.472656 Z M 11.085938 9.472656 "/>
<path style=" stroke:none;fill-rule:nonzero;fill:rgb(8.235294%,49.411765%,73.333333%);fill-opacity:1;" d="M 66.410156 8.675781 C 73.476562 8.617188 80.542969 8.679688 87.609375 8.640625 C 88.015625 10.507812 87.714844 12.515625 87.789062 14.441406 C 82.203125 14.492188 76.613281 14.40625 71.027344 14.488281 C 70.949219 18.878906 70.964844 23.28125 71.019531 27.675781 C 75.792969 27.738281 80.566406 27.707031 85.34375 27.691406 C 85.367188 29.613281 85.359375 31.53125 85.351562 33.449219 C 80.5625 33.519531 75.777344 33.394531 70.992188 33.511719 C 70.972656 41.074219 70.988281 48.632812 70.984375 56.191406 C 69.449219 56.199219 67.914062 56.183594 66.382812 56.207031 C 66.390625 40.363281 66.332031 24.515625 66.410156 8.675781 Z M 66.410156 8.675781 "/>
<path style=" stroke:none;fill-rule:nonzero;fill:rgb(8.235294%,49.411765%,73.333333%);fill-opacity:1;" d="M 43.417969 8.675781 C 45.421875 8.628906 47.425781 8.652344 49.429688 8.660156 C 51.5625 16.976562 53.71875 25.28125 55.804688 33.625 C 57.707031 41.152344 59.722656 48.621094 61.519531 56.199219 C 59.878906 56.160156 58.230469 56.265625 56.59375 56.136719 C 55.609375 51.753906 54.441406 47.457031 53.417969 43.09375 C 48.71875 42.929688 44.011719 43.054688 39.3125 43.03125 C 38.066406 47.339844 37.136719 51.820312 36.011719 56.191406 C 34.445312 56.203125 32.878906 56.175781 31.3125 56.214844 C 35.304688 40.347656 39.382812 24.519531 43.417969 8.675781 M 46.105469 15.523438 C 44.316406 22.835938 42.457031 30.113281 40.660156 37.421875 C 44.4375 37.40625 48.214844 37.53125 51.988281 37.359375 C 50.148438 30.042969 48.269531 22.746094 46.5 15.394531 C 46.402344 15.429688 46.203125 15.492188 46.105469 15.523438 Z M 46.105469 15.523438 "/>
<path style=" stroke:none;fill-rule:nonzero;fill:rgb(8.235294%,49.411765%,73.333333%);fill-opacity:1;" d="M 100.828125 8.664062 C 102.832031 8.640625 104.832031 8.644531 106.839844 8.664062 C 109.597656 19.449219 112.363281 30.234375 115.097656 41.035156 C 116.390625 46.078125 117.734375 51.101562 118.929688 56.199219 C 117.296875 56.15625 115.664062 56.277344 114.035156 56.140625 C 112.957031 51.800781 111.871094 47.460938 110.832031 43.101562 C 106.128906 42.917969 101.417969 43.066406 96.710938 43.03125 C 95.480469 47.339844 94.539062 51.808594 93.417969 56.179688 C 91.847656 56.214844 90.28125 56.164062 88.714844 56.222656 C 92.703125 40.347656 96.777344 24.507812 100.828125 8.664062 M 103.511719 15.503906 C 101.703125 22.789062 99.929688 30.09375 98.027344 37.335938 C 101.796875 37.558594 105.585938 37.394531 109.359375 37.417969 C 107.597656 30.066406 105.660156 22.789062 103.914062 15.425781 C 103.8125 15.445312 103.613281 15.484375 103.511719 15.503906 Z M 103.511719 15.503906 "/>
</g>
</svg>
