<?xml version="1.0" encoding="UTF-8"?>
<svg width="120" height="60" viewBox="0 0 120 60" xmlns="http://www.w3.org/2000/svg" xmlns:xlink="http://www.w3.org/1999/xlink" version="1.1">
<g id="surface1">
<path style=" stroke:none;fill-rule:nonzero;fill:rgb(50.588235%,56.078431%,75.294118%);fill-opacity:1;" d="M 10.351562 9.964844 C 14.039062 6.519531 18.660156 8.539062 21.527344 14.390625 C 20.414062 19.046875 19.34375 23.75 18.234375 28.402344 C 16.207031 24.542969 14.566406 19.917969 12.675781 15.785156 C 11.875 13.890625 10.988281 12.125 10.351562 9.964844 Z M 10.351562 9.964844 "/>
<path style=" stroke:none;fill-rule:nonzero;fill:rgb(50.588235%,56.078431%,75.294118%);fill-opacity:1;" d="M 51.226562 8.195312 C 54.371094 15.363281 57.441406 22.664062 60.585938 29.820312 L 60.570312 29.871094 C 57.503906 37.160156 54.371094 44.34375 51.222656 51.472656 C 51.226562 37.050781 51.210938 22.621094 51.226562 8.195312 Z M 51.226562 8.195312 "/>
<path style=" stroke:none;fill-rule:nonzero;fill:rgb(50.588235%,56.078431%,75.294118%);fill-opacity:1;" d="M 74.449219 31.445312 C 76.761719 29.535156 79.042969 27.445312 81.355469 25.515625 C 81.433594 27 81.480469 28.496094 81.476562 29.996094 C 81.472656 36.785156 81.488281 43.574219 81.460938 50.359375 C 77.597656 47.667969 74.675781 39.945312 74.449219 31.445312 Z M 74.449219 31.445312 "/>
<path style=" stroke:none;fill-rule:nonzero;fill:rgb(14.117647%,24.705882%,56.470588%);fill-opacity:1;" d="M 35.835938 8.25 C 39.476562 22.644531 43.082031 37.082031 46.722656 51.484375 C 39.792969 51.488281 32.871094 51.480469 25.945312 51.488281 C 29.257812 37.089844 32.535156 22.660156 35.835938 8.25 Z M 35.835938 8.25 "/>
<path style=" stroke:none;fill-rule:nonzero;fill:rgb(14.117647%,24.705882%,56.470588%);fill-opacity:1;" d="M 105.429688 11.941406 C 105.71875 10.726562 105.949219 9.445312 106.308594 8.308594 C 109.894531 22.71875 113.550781 37.058594 117.136719 51.472656 C 110.21875 51.488281 103.296875 51.484375 96.378906 51.480469 C 99.425781 38.328125 102.402344 25.109375 105.429688 11.941406 Z M 105.429688 11.941406 "/>
<path style=" stroke:none;fill-rule:nonzero;fill:rgb(78.039216%,78.039216%,78.039216%);fill-opacity:1;" d="M 81.539062 9.320312 C 84.347656 7.542969 87.542969 8.046875 90.085938 11.203125 C 91.046875 12.421875 91.941406 13.902344 92.6875 15.671875 C 88.988281 18.933594 85.273438 22.089844 81.570312 25.316406 C 81.425781 20 81.46875 14.648438 81.539062 9.320312 Z M 81.539062 9.320312 "/>
<path style=" stroke:none;fill-rule:nonzero;fill:rgb(78.039216%,78.039216%,78.039216%);fill-opacity:1;" d="M 60.585938 29.820312 C 63.679688 22.65625 66.746094 15.441406 69.886719 8.355469 C 69.941406 20.40625 69.890625 32.453125 69.914062 44.5 C 69.875 46.953125 69.960938 49.417969 69.859375 51.867188 C 69.761719 51.757812 69.5625 51.542969 69.460938 51.433594 L 69.835938 51.289062 C 66.753906 44.132812 63.679688 36.972656 60.570312 29.871094 Z M 60.585938 29.820312 "/>
<path style=" stroke:none;fill-rule:nonzero;fill:rgb(78.039216%,78.039216%,78.039216%);fill-opacity:1;" d="M 18.171875 28.847656 C 19.976562 32.578125 21.589844 36.703125 23.292969 40.640625 C 21.28125 48.09375 17.015625 52.535156 12.933594 51.304688 C 14.648438 43.789062 16.386719 36.296875 18.171875 28.847656 Z M 18.171875 28.847656 "/>
<path style=" stroke:none;fill-rule:nonzero;fill:rgb(44.313725%,48.235294%,61.568627%);fill-opacity:1;" d="M 4.351562 23.085938 C 5.269531 17.109375 7.539062 12.238281 10.3125 9.828125 L 10.351562 9.964844 C 10.988281 12.125 11.875 13.890625 12.675781 15.785156 C 14.566406 19.917969 16.207031 24.542969 18.234375 28.402344 C 18.214844 28.515625 18.1875 28.738281 18.171875 28.847656 C 16.386719 36.296875 14.648438 43.789062 12.933594 51.304688 C 9.660156 50.558594 6.648438 46.242188 5.085938 40.238281 C 3.707031 35.066406 3.46875 28.679688 4.351562 23.085938 Z M 4.351562 23.085938 "/>
<path style=" stroke:none;fill-rule:nonzero;fill:rgb(44.313725%,48.235294%,61.568627%);fill-opacity:1;" d="M 81.570312 25.316406 C 85.273438 22.089844 88.988281 18.933594 92.6875 15.671875 C 94.347656 19.566406 95.289062 24.785156 95.242188 29.996094 C 95.277344 36.035156 93.964844 42.007812 91.792969 45.996094 C 89.0625 51.207031 84.953125 52.839844 81.460938 50.359375 C 81.488281 43.574219 81.472656 36.785156 81.476562 29.996094 C 81.480469 28.496094 81.433594 27 81.355469 25.515625 C 81.40625 25.464844 81.515625 25.363281 81.570312 25.316406 Z M 81.570312 25.316406 "/>
<path style=" stroke:none;fill-rule:nonzero;fill:rgb(44.313725%,48.235294%,61.568627%);fill-opacity:1;" d="M 51.222656 51.472656 C 54.371094 44.34375 57.503906 37.160156 60.570312 29.871094 C 63.679688 36.972656 66.753906 44.132812 69.835938 51.289062 L 69.460938 51.433594 C 63.382812 51.5625 57.300781 51.472656 51.222656 51.472656 Z M 51.222656 51.472656 "/>
</g>
</svg>
