<?xml version="1.0" encoding="UTF-8"?>
<svg width="120" height="60" viewBox="0 0 120 60" xmlns="http://www.w3.org/2000/svg" xmlns:xlink="http://www.w3.org/1999/xlink" version="1.1">
<g id="surface1">
<path style=" stroke:none;fill-rule:nonzero;fill:rgb(1.568627%,67.843137%,94.509804%);fill-opacity:1;" d="M 4.480469 1.65625 C 5.847656 2.082031 7.691406 2.105469 8.328125 4 C 9.597656 5.832031 8.421875 8.023438 8.039062 9.988281 C 6.960938 10.355469 5.882812 10.726562 4.808594 11.105469 C 4.171875 10.773438 2.914062 10.09375 2.289062 9.761719 C 1.710938 7.617188 1.722656 5.382812 2.277344 3.25 C 2.828125 2.84375 3.933594 2.046875 4.480469 1.65625 Z M 4.480469 1.65625 "/>
<path style=" stroke:none;fill-rule:nonzero;fill:rgb(1.568627%,67.843137%,94.509804%);fill-opacity:1;" d="M 13.597656 2.679688 C 20.585938 1.738281 27.632812 2.308594 34.644531 2.238281 C 56.75 2.117188 78.867188 2.203125 100.972656 2.179688 C 106.953125 2.238281 112.953125 1.90625 118.921875 2.644531 C 118.882812 5.132812 118.847656 7.632812 118.828125 10.132812 C 83.769531 10.394531 48.703125 10 13.644531 10.332031 C 13.519531 7.785156 13.507812 5.226562 13.597656 2.679688 Z M 13.597656 2.679688 "/>
<path style=" stroke:none;fill-rule:nonzero;fill:rgb(1.568627%,67.843137%,94.509804%);fill-opacity:1;" d="M 2.414062 18.179688 C 4.328125 18.25 6.242188 18.332031 8.152344 18.394531 C 8.097656 31.226562 8.144531 44.070312 8.144531 56.90625 C 6.242188 56.917969 4.347656 56.929688 2.441406 56.917969 C 2.421875 44 2.5 31.082031 2.414062 18.179688 Z M 2.414062 18.179688 "/>
<path style=" stroke:none;fill-rule:nonzero;fill:rgb(13.333333%,12.941176%,13.333333%);fill-opacity:1;" d="M 13.25 17.144531 C 20.453125 16.355469 28.796875 14.976562 34.847656 21.023438 C 41.933594 29.082031 41.210938 45.144531 33.960938 52.714844 C 28.027344 58.203125 20.210938 57.40625 13.242188 56.90625 C 13.203125 43.65625 13.183594 30.40625 13.25 17.144531 M 17.507812 20.867188 C 17.375 31.570312 17.441406 42.285156 17.5 52.988281 C 21.335938 52.964844 25.453125 53.511719 28.960938 51.144531 C 32.421875 49.25 34.367188 44.691406 35 40.273438 C 35.671875 34.882812 35.382812 28.558594 31.941406 24.605469 C 28.183594 19.929688 22.402344 20.417969 17.507812 20.867188 Z M 17.507812 20.867188 "/>
<path style=" stroke:none;fill-rule:nonzero;fill:rgb(13.333333%,12.941176%,13.333333%);fill-opacity:1;" d="M 40.210938 56.785156 C 43.769531 43.464844 47.519531 30.214844 51.007812 16.855469 C 52.730469 16.808594 54.453125 16.773438 56.171875 16.75 C 59.777344 30.144531 63.5 43.488281 67.117188 56.867188 C 65.617188 56.84375 64.117188 56.832031 62.617188 56.820312 C 61.519531 52.605469 60.382812 48.417969 59.191406 44.25 C 55.394531 44.320312 51.585938 44.261719 47.789062 44.308594 C 46.742188 48.535156 45.632812 52.738281 44.507812 56.929688 C 43.078125 56.867188 41.644531 56.832031 40.210938 56.785156 M 48.683594 40.179688 C 51.902344 40.203125 55.132812 40.214844 58.355469 40.226562 C 56.597656 33.867188 54.597656 27.582031 53.644531 20.941406 C 52.242188 27.453125 50.507812 33.832031 48.683594 40.179688 Z M 48.683594 40.179688 "/>
<path style=" stroke:none;fill-rule:nonzero;fill:rgb(13.333333%,12.941176%,13.333333%);fill-opacity:1;" d="M 74.742188 17.855469 C 78.847656 14.941406 83.722656 16 87.980469 17.726562 C 87.585938 19.191406 87.191406 20.65625 86.796875 22.117188 C 84.019531 20.785156 80.941406 19.667969 77.980469 20.832031 C 74.605469 21.867188 73.375 27.894531 76.085938 30.714844 C 79.367188 34.105469 84.046875 34.738281 87.085938 38.605469 C 90.5 43.464844 89.578125 51.929688 85.078125 55.308594 C 80.367188 58.785156 74.402344 57.761719 69.605469 55.070312 C 70.019531 53.59375 70.441406 52.117188 70.882812 50.65625 C 74.308594 52.808594 78.632812 54.367188 82.25 52.011719 C 85.328125 50.179688 85.875 44.632812 83.546875 41.703125 C 80.210938 38.09375 75.183594 37.75 72.269531 33.40625 C 68.902344 28.796875 70.242188 20.558594 74.742188 17.855469 Z M 74.742188 17.855469 "/>
<path style=" stroke:none;fill-rule:nonzero;fill:rgb(13.333333%,12.941176%,13.333333%);fill-opacity:1;" d="M 94.328125 16.820312 C 95.703125 16.796875 97.078125 16.785156 98.460938 16.785156 C 98.472656 22.40625 98.453125 28.023438 98.507812 33.644531 C 103.671875 33.5 108.835938 33.535156 114 33.632812 C 114.046875 28 113.992188 22.355469 114.027344 16.726562 C 115.433594 16.785156 116.847656 16.84375 118.25 16.929688 C 118.125 30.226562 118.183594 43.523438 118.210938 56.832031 C 116.828125 56.84375 115.441406 56.882812 114.058594 56.929688 C 113.980469 50.632812 114.007812 44.320312 114 38.023438 C 108.816406 37.976562 103.644531 37.976562 98.472656 38.011719 C 98.460938 44.320312 98.5 50.632812 98.460938 56.941406 C 97.066406 56.867188 95.683594 56.820312 94.289062 56.773438 C 94.394531 43.453125 94.289062 30.132812 94.328125 16.820312 Z M 94.328125 16.820312 "/>
</g>
</svg>
