<?xml version="1.0" encoding="UTF-8"?>
<svg width="120" height="60" viewBox="0 0 120 60" xmlns="http://www.w3.org/2000/svg" xmlns:xlink="http://www.w3.org/1999/xlink" version="1.1">
<g id="surface1">
<path style=" stroke:none;fill-rule:nonzero;fill:rgb(12.54902%,74.509804%,100%);fill-opacity:1;" d="M 5.199219 0.820312 C 6.503906 0.304688 7.988281 0.332031 9.300781 0.8125 C 9.480469 9.589844 9.328125 18.382812 9.371094 27.167969 C 11.445312 23.953125 13.734375 21.019531 15.894531 17.917969 C 16.570312 17.015625 17.183594 15.957031 18.03125 15.355469 C 19.726562 15.167969 21.453125 15.132812 23.121094 15.703125 C 20.285156 19.957031 17.15625 23.8125 14.199219 27.917969 C 17.21875 33.417969 20.683594 38.472656 23.375 44.304688 C 21.359375 44.144531 18.574219 45.617188 17.261719 42.734375 C 15.230469 39.152344 13.253906 35.515625 11.175781 31.992188 C 10.570312 32.820312 9.96875 33.640625 9.371094 34.464844 C 9.371094 37.792969 9.449219 41.125 9.253906 44.445312 C 7.953125 44.078125 6.035156 45.3125 5.171875 43.605469 C 5.109375 29.347656 5.054688 15.078125 5.199219 0.820312 Z M 5.199219 0.820312 "/>
<path style=" stroke:none;fill-rule:nonzero;fill:rgb(12.54902%,74.509804%,100%);fill-opacity:1;" d="M 88.066406 0.582031 C 89.441406 0.519531 90.816406 0.492188 92.183594 0.570312 C 92.339844 14.042969 92.195312 27.515625 92.261719 40.992188 C 92.199219 42.089844 92.398438 43.304688 91.960938 44.296875 C 90.613281 44.320312 87.703125 45.515625 87.996094 42.390625 C 88.046875 28.453125 87.910156 14.515625 88.066406 0.582031 Z M 88.066406 0.582031 "/>
<path style=" stroke:none;fill-rule:nonzero;fill:rgb(12.54902%,74.509804%,100%);fill-opacity:1;" d="M 24.300781 18.660156 C 27.535156 15.027344 32.238281 13.515625 36.144531 15.867188 C 38.628906 17.304688 40.171875 20.921875 40.230469 24.605469 C 40.296875 30.296875 40.21875 36.007812 40.261719 41.707031 C 40.234375 42.589844 40.339844 43.582031 39.898438 44.320312 C 38.765625 44.507812 37.621094 44.453125 36.480469 44.464844 C 36.328125 44.132812 36.03125 43.480469 35.878906 43.144531 C 32.839844 45.546875 28.671875 45.839844 25.878906 42.609375 C 23.03125 39.515625 22.824219 32.667969 25.75 29.535156 C 28.726562 26.445312 32.605469 26.292969 36.144531 25.570312 C 35.855469 23.707031 35.488281 21.472656 34.066406 20.671875 C 31.445312 19.054688 28.710938 21.140625 26.414062 22.820312 C 25.65625 21.484375 24.960938 20.082031 24.300781 18.660156 M 30.070312 32.527344 C 28.996094 33.109375 27.808594 34.304688 27.855469 36.105469 C 27.988281 38.515625 29.921875 39.695312 31.460938 39.609375 C 33.140625 39.742188 34.695312 38.730469 36.011719 37.367188 C 36 35.222656 36 33.082031 35.996094 30.9375 C 34.003906 31.320312 31.964844 31.535156 30.070312 32.527344 Z M 30.070312 32.527344 "/>
<path style=" stroke:none;fill-rule:nonzero;fill:rgb(12.54902%,74.509804%,100%);fill-opacity:1;" d="M 45.761719 18.457031 C 48.683594 13.859375 54.03125 13.714844 57.613281 16.839844 C 58.238281 14.480469 60.160156 15.367188 61.566406 15.339844 C 61.695312 15.507812 61.945312 15.832031 62.074219 16 C 62.199219 25.695312 62.085938 35.410156 62.128906 45.109375 C 62.148438 49.3125 61.289062 53.9375 58.761719 56.582031 C 54.328125 61.042969 47.441406 59.660156 44.179688 53.5 C 45.089844 52.257812 45.898438 50.832031 46.984375 49.875 C 48.449219 51.214844 49.71875 53.203125 51.546875 53.582031 C 53.429688 53.929688 55.648438 53.4375 56.828125 51.140625 C 58.144531 48.75 57.824219 45.570312 57.90625 42.765625 C 55.074219 45.179688 51.410156 45.765625 48.335938 43.894531 C 45.539062 42.140625 43.714844 38.171875 43.179688 34.0625 C 42.410156 28.703125 43.039062 22.609375 45.761719 18.457031 M 50.640625 20.964844 C 49.078125 21.597656 48.011719 23.578125 47.625 25.703125 C 47.03125 29.015625 47.070312 32.714844 48.210938 35.796875 C 50.085938 40.707031 56.25 40.269531 57.820312 35.269531 C 57.925781 31.671875 57.921875 28.054688 57.820312 24.457031 C 56.761719 20.6875 53.15625 19.839844 50.640625 20.964844 Z M 50.640625 20.964844 "/>
<path style=" stroke:none;fill-rule:nonzero;fill:rgb(12.54902%,74.509804%,100%);fill-opacity:1;" d="M 68.710938 17.5625 C 71.871094 13.703125 76.785156 14.0625 80.234375 17 C 80.28125 16.570312 80.371094 15.707031 80.414062 15.269531 C 81.714844 15.589844 83.480469 14.507812 84.449219 16.035156 C 84.574219 25.027344 84.453125 34.035156 84.503906 43.027344 C 84.503906 47.070312 84.300781 51.480469 82.414062 54.785156 C 80.210938 58.652344 76.289062 59.707031 72.941406 58.953125 C 70.425781 58.464844 68.386719 56.203125 66.515625 53.992188 C 67.390625 52.535156 68.136719 50.632812 69.46875 49.9375 C 70.75 51.242188 71.921875 52.957031 73.519531 53.492188 C 75.433594 53.992188 77.703125 53.5625 79.035156 51.402344 C 80.414062 48.953125 80.21875 45.660156 80.289062 42.734375 C 77.476562 45.152344 73.835938 45.730469 70.75 43.964844 C 68.066406 42.359375 66.261719 38.679688 65.628906 34.796875 C 64.636719 28.859375 65.335938 21.839844 68.710938 17.5625 M 73.105469 20.882812 C 70.585938 21.855469 69.601562 25.785156 69.613281 29.078125 C 69.445312 32.640625 70.144531 36.921875 72.683594 38.589844 C 75.246094 39.984375 78.984375 39.105469 80.175781 35.269531 C 80.308594 31.6875 80.304688 28.070312 80.175781 24.480469 C 79.121094 20.722656 75.609375 19.945312 73.105469 20.882812 Z M 73.105469 20.882812 "/>
<path style=" stroke:none;fill-rule:nonzero;fill:rgb(12.54902%,74.509804%,100%);fill-opacity:1;" d="M 97.699219 19.046875 C 101.359375 13.328125 108.628906 13.257812 112.304688 19 C 114.671875 22.328125 115.375 27.296875 114.886719 31.804688 C 109.71875 32.152344 104.546875 31.804688 99.378906 31.980469 C 99.878906 34.089844 100.496094 36.375 101.929688 37.609375 C 104.683594 40.292969 108.441406 39.5 111.140625 37.082031 C 112.121094 38.257812 113.136719 39.445312 113.828125 40.992188 C 111.539062 44.160156 108.078125 45.144531 104.949219 44.929688 C 101.046875 44.695312 97.320312 41.25 95.804688 36.214844 C 94.144531 30.617188 94.636719 23.546875 97.699219 19.046875 M 99.386719 26.722656 C 103.140625 26.734375 106.890625 26.75 110.644531 26.714844 C 110.230469 22.921875 107.796875 19.609375 104.941406 19.9375 C 102.125 19.839844 100.085938 23.234375 99.386719 26.722656 Z M 99.386719 26.722656 "/>
</g>
</svg>
