<?xml version="1.0" encoding="UTF-8"?>
<svg width="120" height="60" viewBox="0 0 120 60" xmlns="http://www.w3.org/2000/svg" xmlns:xlink="http://www.w3.org/1999/xlink" version="1.1">
<g id="surface1">
<path style=" stroke:none;fill-rule:nonzero;fill:rgb(99.607843%,99.607843%,99.607843%);fill-opacity:1;" d="M 109.03125 0 L 109.433594 0 C 110.003906 0.472656 110.097656 2.578125 109.460938 2.945312 C 108.722656 3.292969 108.40625 0.785156 109.03125 0 Z M 109.03125 0 "/>
<path style=" stroke:none;fill-rule:nonzero;fill:rgb(99.607843%,99.607843%,99.607843%);fill-opacity:1;" d="M 109.574219 3.613281 C 110.195312 2.878906 110.953125 4.117188 110.941406 5.632812 C 111.007812 7.078125 110.296875 8.59375 109.675781 7.828125 C 108.972656 7.058594 108.886719 4.527344 109.574219 3.613281 Z M 109.574219 3.613281 "/>
<path style=" stroke:none;fill-rule:nonzero;fill:rgb(99.607843%,99.607843%,99.607843%);fill-opacity:1;" d="M 110.566406 8.378906 C 111.25 7.359375 112.214844 8.683594 112.261719 10.453125 C 112.421875 12.328125 111.550781 14.546875 110.695312 13.769531 C 109.730469 12.921875 109.691406 9.507812 110.566406 8.378906 Z M 110.566406 8.378906 "/>
<path style=" stroke:none;fill-rule:nonzero;fill:rgb(99.607843%,99.607843%,99.607843%);fill-opacity:1;" d="M 118.917969 10.695312 C 118.515625 10.046875 118.75 8.597656 119.171875 8.289062 C 119.46875 7.855469 119.765625 8.457031 120 8.824219 L 120 9.902344 C 119.789062 10.710938 119.296875 11.382812 118.917969 10.695312 Z M 118.917969 10.695312 "/>
<path style=" stroke:none;fill-rule:nonzero;fill:rgb(99.607843%,99.607843%,99.607843%);fill-opacity:1;" d="M 117.089844 10.03125 C 117.554688 9.203125 118.34375 9.5625 118.546875 10.863281 C 118.84375 12.765625 117.703125 14.828125 116.96875 13.585938 C 116.410156 12.734375 116.566406 10.78125 117.089844 10.03125 Z M 117.089844 10.03125 "/>
<path style=" stroke:none;fill-rule:nonzero;fill:rgb(99.607843%,99.607843%,99.607843%);fill-opacity:1;" d="M 114.859375 11.722656 C 115.535156 10.855469 116.515625 12.0625 116.464844 13.855469 C 116.554688 16.070312 115.257812 18.140625 114.433594 16.601562 C 113.753906 15.242188 114.054688 12.496094 114.859375 11.722656 Z M 114.859375 11.722656 "/>
<path style=" stroke:none;fill-rule:nonzero;fill:rgb(99.607843%,99.607843%,99.607843%);fill-opacity:1;" d="M 112.058594 13.679688 C 112.667969 12.804688 113.566406 13.515625 113.800781 15.050781 C 114.277344 17.410156 113.179688 20.75 112.027344 19.828125 C 110.902344 18.824219 111.066406 14.832031 112.058594 13.679688 Z M 112.058594 13.679688 "/>
<path style=" stroke:none;fill-rule:nonzero;fill:rgb(99.607843%,99.607843%,99.607843%);fill-opacity:1;" d="M 117.078125 15.152344 C 117.3125 14.542969 117.847656 14.625 117.964844 15.457031 C 118.164062 16.414062 117.601562 17.511719 117.183594 17.101562 C 116.808594 16.871094 116.78125 15.621094 117.078125 15.152344 Z M 117.078125 15.152344 "/>
<path style=" stroke:none;fill-rule:nonzero;fill:rgb(99.607843%,99.607843%,99.607843%);fill-opacity:1;" d="M 109.5625 16.601562 C 110.109375 15.734375 110.882812 16.644531 111.019531 18.035156 C 111.304688 19.96875 110.496094 22.777344 109.519531 21.9375 C 108.664062 20.871094 108.753906 17.6875 109.5625 16.601562 Z M 109.5625 16.601562 "/>
<path style=" stroke:none;fill-rule:nonzero;fill:rgb(99.607843%,99.607843%,99.607843%);fill-opacity:1;" d="M 115.691406 17.253906 C 116.070312 16.664062 116.679688 16.972656 116.847656 17.984375 C 117.167969 19.664062 116.082031 21.539062 115.460938 20.289062 C 115.027344 19.457031 115.191406 17.765625 115.691406 17.253906 Z M 115.691406 17.253906 "/>
<path style=" stroke:none;fill-rule:nonzero;fill:rgb(99.607843%,99.607843%,99.607843%);fill-opacity:1;" d="M 113.703125 18.769531 C 114.175781 18.175781 114.867188 18.714844 115.027344 19.914062 C 115.339844 21.8125 114.386719 24.054688 113.53125 23.28125 C 112.726562 22.339844 112.917969 19.507812 113.703125 18.769531 Z M 113.703125 18.769531 "/>
<path style=" stroke:none;fill-rule:nonzero;fill:rgb(99.607843%,99.607843%,99.607843%);fill-opacity:1;" d="M 107.871094 19.960938 C 108.375 19.332031 108.878906 20.640625 108.875 21.734375 C 108.933594 23.0625 108.390625 24.886719 107.726562 24.191406 C 107.089844 23.234375 107.195312 20.714844 107.871094 19.960938 Z M 107.871094 19.960938 "/>
<path style=" stroke:none;fill-rule:nonzero;fill:rgb(99.607843%,99.607843%,99.607843%);fill-opacity:1;" d="M 111.515625 20.230469 C 112.375 19.542969 113.132812 21.808594 112.824219 23.578125 C 112.636719 25.214844 111.707031 26.636719 111.023438 25.472656 C 110.25 24.035156 110.578125 20.902344 111.515625 20.230469 Z M 111.515625 20.230469 "/>
<path style=" stroke:none;fill-rule:nonzero;fill:rgb(99.607843%,99.607843%,99.607843%);fill-opacity:1;" d="M 109.066406 23.085938 C 109.511719 22.152344 110.289062 22.882812 110.394531 24.175781 C 110.671875 25.878906 109.921875 28.34375 109.078125 27.515625 C 108.410156 26.535156 108.453125 24.132812 109.066406 23.085938 Z M 109.066406 23.085938 "/>
<path style=" stroke:none;fill-rule:nonzero;fill:rgb(99.607843%,99.607843%,99.607843%);fill-opacity:1;" d="M 106.835938 26.996094 C 106.1875 26.425781 106.277344 23.777344 107.023438 23.855469 C 107.617188 24.558594 107.378906 26.46875 106.835938 26.996094 Z M 106.835938 26.996094 "/>
<path style=" stroke:none;fill-rule:nonzero;fill:rgb(99.607843%,99.607843%,99.607843%);fill-opacity:1;" d="M 114.203125 25.167969 C 114.464844 24.820312 114.820312 24.875 115.042969 25.367188 C 115.679688 26.984375 114.664062 30.050781 113.804688 28.960938 C 113.269531 27.867188 113.621094 25.800781 114.203125 25.167969 Z M 114.203125 25.167969 "/>
<path style=" stroke:none;fill-rule:nonzero;fill:rgb(99.607843%,99.607843%,99.607843%);fill-opacity:1;" d="M 107.5625 26.035156 C 107.828125 25.433594 108.28125 25.734375 108.4375 26.449219 C 108.796875 27.683594 108.363281 29.917969 107.644531 29.578125 C 107.078125 28.875 107.09375 26.914062 107.5625 26.035156 Z M 107.5625 26.035156 "/>
<path style=" stroke:none;fill-rule:nonzero;fill:rgb(99.607843%,99.607843%,99.607843%);fill-opacity:1;" d="M 36.628906 30.878906 C 36.628906 29.351562 36.628906 27.820312 36.628906 26.296875 C 37.039062 26.296875 37.449219 26.296875 37.859375 26.316406 C 37.851562 27.835938 37.855469 29.351562 37.855469 30.871094 C 37.445312 30.878906 37.039062 30.878906 36.628906 30.878906 Z M 36.628906 30.878906 "/>
<path style=" stroke:none;fill-rule:nonzero;fill:rgb(99.607843%,99.607843%,99.607843%);fill-opacity:1;" d="M 48.214844 26.292969 C 48.613281 26.296875 49.011719 26.296875 49.410156 26.28125 C 49.414062 27.8125 49.410156 29.347656 49.414062 30.882812 C 49.011719 30.878906 48.613281 30.878906 48.210938 30.878906 C 48.21875 29.347656 48.214844 27.816406 48.214844 26.292969 Z M 48.214844 26.292969 "/>
<path style=" stroke:none;fill-rule:nonzero;fill:rgb(99.607843%,99.607843%,99.607843%);fill-opacity:1;" d="M 72.375 26.289062 C 75.535156 26.324219 78.699219 26.265625 81.859375 26.316406 C 81.855469 27.898438 81.855469 29.484375 81.859375 31.070312 C 79.4375 31.113281 77.011719 31.078125 74.589844 31.085938 C 74.585938 33.148438 74.589844 35.207031 74.585938 37.269531 C 76.789062 37.261719 78.992188 37.261719 81.195312 37.269531 C 81.191406 38.878906 81.191406 40.492188 81.195312 42.101562 C 78.992188 42.09375 76.792969 42.125 74.589844 42.085938 C 74.585938 45.75 74.585938 49.414062 74.589844 53.078125 C 73.847656 53.070312 73.109375 53.074219 72.367188 53.066406 C 72.386719 44.140625 72.367188 35.210938 72.375 26.289062 Z M 72.375 26.289062 "/>
<path style=" stroke:none;fill-rule:nonzero;fill:rgb(99.607843%,99.607843%,99.607843%);fill-opacity:1;" d="M 83.519531 26.296875 C 85.898438 26.394531 88.421875 25.773438 90.640625 28.125 C 92.957031 30.859375 93.988281 37.605469 93.34375 43.148438 C 92.941406 46.792969 91.84375 50.011719 90.363281 51.742188 C 89.480469 52.78125 88.46875 53.046875 87.488281 53.054688 C 86.164062 53.085938 84.835938 53.070312 83.511719 53.066406 C 83.53125 44.140625 83.515625 35.214844 83.519531 26.296875 M 85.726562 48.230469 C 87.28125 48.175781 89.117188 48.335938 90.285156 45.613281 C 91.851562 42.125 91.589844 35.546875 89.769531 32.753906 C 88.574219 31.023438 87.09375 31.246094 85.734375 31.070312 C 85.722656 36.789062 85.734375 42.507812 85.726562 48.230469 Z M 85.726562 48.230469 "/>
<path style=" stroke:none;fill-rule:nonzero;fill:rgb(99.607843%,99.607843%,99.607843%);fill-opacity:1;" d="M 93.289062 53.082031 C 94.976562 44.148438 96.601562 35.152344 98.285156 26.210938 C 98.859375 26.21875 99.433594 26.214844 100.007812 26.21875 C 101.699219 35.160156 103.347656 44.148438 105.046875 53.085938 C 104.222656 53.097656 103.398438 53.085938 102.570312 53.097656 C 102.128906 50.816406 101.734375 48.496094 101.28125 46.230469 C 99.894531 46.078125 98.5 46.265625 97.105469 46.140625 C 96.636719 48.433594 96.214844 50.78125 95.761719 53.097656 C 94.933594 53.085938 94.113281 53.101562 93.289062 53.082031 M 99.160156 33.328125 C 98.722656 35.976562 98.320312 38.65625 97.890625 41.3125 C 98.730469 41.304688 99.566406 41.304688 100.410156 41.3125 C 99.984375 38.65625 99.566406 35.992188 99.160156 33.328125 Z M 99.160156 33.328125 "/>
<path style=" stroke:none;fill-rule:nonzero;fill:rgb(99.607843%,99.607843%,99.607843%);fill-opacity:1;" d="M 106.84375 31.238281 C 106.171875 31.113281 106.308594 28.898438 106.855469 28.496094 C 107.320312 29.09375 107.355469 30.714844 106.84375 31.238281 Z M 106.84375 31.238281 "/>
<path style=" stroke:none;fill-rule:nonzero;fill:rgb(99.607843%,99.607843%,99.607843%);fill-opacity:1;" d="M 114.125 31.878906 C 113.878906 30.699219 114.363281 29.621094 114.847656 29.363281 C 115.578125 30.285156 114.75 33.171875 114.125 31.878906 Z M 114.125 31.878906 "/>
<path style=" stroke:none;fill-rule:nonzero;fill:rgb(99.607843%,99.607843%,99.607843%);fill-opacity:1;" d="M 106.011719 32.488281 C 105.820312 31.859375 106.03125 31.246094 106.300781 30.992188 C 106.34375 31.222656 106.433594 31.675781 106.476562 31.90625 C 106.359375 32.296875 106.261719 32.835938 106.011719 32.488281 Z M 106.011719 32.488281 "/>
<path style=" stroke:none;fill-rule:nonzero;fill:rgb(99.607843%,99.607843%,99.607843%);fill-opacity:1;" d="M 54.242188 32.90625 C 56.625 30.894531 59.421875 34.445312 60.101562 39.84375 C 60.882812 45.324219 59.324219 51.839844 56.824219 53.222656 C 54.460938 54.703125 51.828125 51.085938 51.25 45.769531 C 50.585938 40.59375 51.949219 34.566406 54.242188 32.90625 M 54.558594 35.472656 C 52.925781 36.792969 51.972656 41.078125 52.382812 44.824219 C 52.6875 47.949219 53.910156 50.503906 55.328125 50.847656 C 56.265625 51.109375 57.25 50.410156 57.933594 48.945312 C 59.070312 46.617188 59.425781 42.582031 58.78125 39.445312 C 58.066406 36.023438 56.148438 34.023438 54.558594 35.472656 Z M 54.558594 35.472656 "/>
<path style=" stroke:none;fill-rule:nonzero;fill:rgb(99.607843%,99.607843%,99.607843%);fill-opacity:1;" d="M 106.554688 32.773438 C 107.320312 32.476562 107.683594 35.226562 106.988281 35.964844 C 106.164062 36.730469 105.671875 33.191406 106.554688 32.773438 Z M 106.554688 32.773438 "/>
<path style=" stroke:none;fill-rule:nonzero;fill:rgb(99.607843%,99.607843%,99.607843%);fill-opacity:1;" d="M 114.441406 32.890625 C 114.941406 32.246094 114.890625 34.210938 114.480469 34.371094 C 114.0625 34.597656 114.144531 33.125 114.441406 32.890625 Z M 114.441406 32.890625 "/>
<path style=" stroke:none;fill-rule:nonzero;fill:rgb(99.607843%,99.607843%,99.607843%);fill-opacity:1;" d="M 1.109375 36.636719 C 1.964844 33.835938 3.542969 32.570312 5.007812 32.824219 C 6.183594 32.980469 7.257812 34.359375 8.070312 36.207031 C 9.183594 38.546875 9.488281 42.316406 9.183594 45.5625 C 8.734375 50.015625 6.839844 53.351562 4.828125 53.503906 C 3.414062 53.757812 1.898438 52.347656 1.199219 49.460938 C 1.214844 52.976562 1.203125 56.484375 1.207031 60 L 0 60 L 0 33.214844 C 0.375 33.214844 0.75 33.214844 1.125 33.214844 C 1.125 34.355469 1.125 35.492188 1.109375 36.636719 M 3.394531 35.863281 C 2.566406 36.515625 1.84375 37.875 1.453125 39.648438 C 0.980469 41.828125 1 44.484375 1.449219 46.667969 C 1.894531 48.582031 2.703125 50.058594 3.625 50.664062 C 4.957031 51.511719 6.496094 50.457031 7.359375 47.996094 C 8.464844 44.984375 8.292969 40.125 7.003906 37.515625 C 6.066406 35.46875 4.613281 34.851562 3.394531 35.863281 Z M 3.394531 35.863281 "/>
<path style=" stroke:none;fill-rule:nonzero;fill:rgb(99.607843%,99.607843%,99.607843%);fill-opacity:1;" d="M 12.105469 36.097656 C 12.550781 33.855469 13.636719 32.761719 14.683594 32.777344 C 14.683594 33.652344 14.683594 34.527344 14.683594 35.402344 C 13.488281 35.597656 12.242188 37.648438 12.207031 40.519531 C 12.171875 44.695312 12.199219 48.878906 12.191406 53.058594 C 11.785156 53.074219 11.375 53.066406 10.96875 53.074219 C 10.972656 46.453125 10.96875 39.832031 10.96875 33.214844 C 11.351562 33.214844 11.730469 33.214844 12.113281 33.210938 C 12.117188 34.171875 12.105469 35.132812 12.105469 36.097656 Z M 12.105469 36.097656 "/>
<path style=" stroke:none;fill-rule:nonzero;fill:rgb(99.607843%,99.607843%,99.607843%);fill-opacity:1;" d="M 16.09375 37.71875 C 17.128906 33.695312 19.46875 31.789062 21.417969 33.292969 C 22.921875 34.390625 24.152344 37.355469 24.453125 40.867188 C 24.558594 41.933594 24.578125 43.023438 24.609375 44.109375 C 21.933594 44.132812 19.261719 44.101562 16.585938 44.121094 C 16.714844 47.015625 17.648438 49.519531 18.851562 50.5 C 20.433594 51.839844 22.375 50.042969 23.097656 46.609375 C 23.519531 46.601562 23.945312 46.601562 24.367188 46.632812 C 23.921875 49.058594 23.132812 51.191406 22.082031 52.390625 C 20.503906 54.285156 18.441406 53.757812 17.078125 51.175781 C 15.332031 48.042969 14.90625 41.953125 16.09375 37.71875 M 16.59375 41.6875 C 18.867188 41.695312 21.140625 41.695312 23.414062 41.691406 C 23.066406 38.1875 21.621094 35.320312 20 35.390625 C 18.382812 35.355469 16.910156 38.148438 16.59375 41.6875 Z M 16.59375 41.6875 "/>
<path style=" stroke:none;fill-rule:nonzero;fill:rgb(99.607843%,99.607843%,99.607843%);fill-opacity:1;" d="M 26.585938 37.734375 C 27.703125 33.6875 30.085938 31.816406 32.089844 33.273438 C 33.417969 34.128906 34.488281 36.421875 35.042969 39.234375 C 34.585938 39.269531 34.132812 39.257812 33.679688 39.257812 C 33.234375 37.726562 32.589844 36.457031 31.816406 35.847656 C 30.328125 34.609375 28.507812 35.953125 27.636719 38.933594 C 27.066406 40.828125 26.941406 43.3125 27.246094 45.476562 C 27.605469 48.25 28.730469 50.402344 29.996094 50.847656 C 30.875 51.125 31.824219 50.835938 32.574219 49.6875 C 33.027344 49.03125 33.367188 48.082031 33.71875 47.179688 C 34.140625 47.230469 34.566406 47.242188 34.992188 47.203125 C 34.464844 50.058594 33.339844 52.339844 32.007812 53.140625 C 30.433594 54.09375 28.640625 53.289062 27.414062 50.824219 C 25.765625 47.683594 25.386719 41.777344 26.585938 37.734375 Z M 26.585938 37.734375 "/>
<path style=" stroke:none;fill-rule:nonzero;fill:rgb(99.607843%,99.607843%,99.607843%);fill-opacity:1;" d="M 40.5 35.632812 C 41.535156 32.253906 43.957031 31.824219 45.257812 34.65625 C 45.703125 35.546875 45.933594 36.828125 46.003906 38.136719 C 45.539062 38.175781 45.078125 38.148438 44.613281 38.183594 C 44.472656 35.035156 42.28125 34.359375 41.660156 37.054688 C 41.328125 38.398438 41.703125 40.085938 42.308594 40.632812 C 43.421875 41.722656 44.773438 41.863281 45.671875 43.90625 C 46.613281 46.078125 46.324219 49.890625 45.324219 51.722656 C 43.917969 54.324219 41.554688 54.191406 40.34375 50.988281 C 39.9375 49.945312 39.75 48.566406 39.742188 47.195312 C 40.195312 47.191406 40.652344 47.195312 41.105469 47.183594 C 41.1875 49.796875 42.429688 51.480469 43.519531 50.839844 C 44.1875 50.550781 44.875 49.289062 44.8125 47.625 C 44.875 46.132812 44.316406 45.015625 43.753906 44.503906 C 42.800781 43.628906 41.675781 43.550781 40.871094 41.957031 C 40.058594 40.445312 39.898438 37.570312 40.5 35.632812 Z M 40.5 35.632812 "/>
<path style=" stroke:none;fill-rule:nonzero;fill:rgb(99.607843%,99.607843%,99.607843%);fill-opacity:1;" d="M 61.964844 33.21875 C 62.347656 33.214844 62.730469 33.214844 63.117188 33.210938 C 63.113281 34.183594 63.113281 35.160156 63.105469 36.136719 C 63.558594 34.75 64.152344 33.503906 64.910156 33.066406 C 66.519531 32.101562 68.382812 33.730469 69.238281 36.960938 C 69.644531 38.464844 69.765625 40.25 69.777344 41.980469 C 69.796875 45.675781 69.769531 49.367188 69.789062 53.066406 C 69.386719 53.070312 68.984375 53.070312 68.582031 53.082031 C 68.578125 49.226562 68.601562 45.375 68.570312 41.519531 C 68.566406 39.296875 68.023438 37.097656 67.125 36.105469 C 65.980469 34.695312 64.410156 35.417969 63.644531 37.824219 C 63.171875 39.226562 63.191406 41.0625 63.183594 42.734375 C 63.183594 46.175781 63.179688 49.617188 63.183594 53.058594 C 62.777344 53.074219 62.371094 53.066406 61.964844 53.070312 C 61.964844 46.453125 61.964844 39.835938 61.964844 33.21875 Z M 61.964844 33.21875 "/>
<path style=" stroke:none;fill-rule:nonzero;fill:rgb(99.607843%,99.607843%,99.607843%);fill-opacity:1;" d="M 36.628906 33.214844 C 37.039062 33.214844 37.445312 33.214844 37.855469 33.226562 C 37.855469 39.835938 37.851562 46.449219 37.855469 53.058594 C 37.445312 53.074219 37.035156 53.070312 36.628906 53.070312 C 36.632812 46.453125 36.628906 39.832031 36.628906 33.214844 Z M 36.628906 33.214844 "/>
<path style=" stroke:none;fill-rule:nonzero;fill:rgb(99.607843%,99.607843%,99.607843%);fill-opacity:1;" d="M 48.210938 33.214844 C 48.613281 33.214844 49.011719 33.214844 49.410156 33.207031 C 49.410156 39.828125 49.410156 46.453125 49.414062 53.078125 C 49.011719 53.070312 48.613281 53.070312 48.214844 53.078125 C 48.214844 46.453125 48.222656 39.835938 48.210938 33.214844 Z M 48.210938 33.214844 "/>
<path style=" stroke:none;fill-rule:nonzero;fill:rgb(99.607843%,99.607843%,99.607843%);fill-opacity:1;" d="M 113.699219 35.296875 C 113.945312 34.824219 114.285156 34.828125 114.410156 35.613281 C 114.144531 36.164062 113.796875 36.171875 113.699219 35.296875 Z M 113.699219 35.296875 "/>
<path style=" stroke:none;fill-rule:nonzero;fill:rgb(99.607843%,99.607843%,99.607843%);fill-opacity:1;" d="M 113 37.730469 C 112.636719 37.234375 112.804688 36.175781 113.148438 35.917969 C 113.460938 35.585938 113.644531 36.277344 113.820312 36.71875 C 113.625 37.335938 113.375 37.996094 113 37.730469 Z M 113 37.730469 "/>
<path style=" stroke:none;fill-rule:nonzero;fill:rgb(99.607843%,99.607843%,99.607843%);fill-opacity:1;" d="M 107.0625 36.449219 C 107.53125 35.636719 108.21875 36.628906 108.261719 37.835938 C 108.375 39.035156 108.015625 40.351562 107.472656 40.558594 C 106.636719 40.355469 106.402344 37.472656 107.0625 36.449219 Z M 107.0625 36.449219 "/>
<path style=" stroke:none;fill-rule:nonzero;fill:rgb(99.607843%,99.607843%,99.607843%);fill-opacity:1;" d="M 111.726562 37.242188 C 112.070312 36.675781 112.605469 37.007812 112.726562 37.957031 C 112.824219 39.304688 112.066406 40.503906 111.535156 39.820312 C 111.128906 39.121094 111.320312 37.714844 111.726562 37.242188 Z M 111.726562 37.242188 "/>
<path style=" stroke:none;fill-rule:nonzero;fill:rgb(99.607843%,99.607843%,99.607843%);fill-opacity:1;" d="M 110.058594 38.769531 C 110.414062 38.21875 110.964844 38.542969 111.144531 39.441406 C 111.488281 41.144531 110.550781 43.25 109.796875 42.449219 C 109.277344 41.429688 109.476562 39.445312 110.058594 38.769531 Z M 110.058594 38.769531 "/>
<path style=" stroke:none;fill-rule:nonzero;fill:rgb(99.607843%,99.607843%,99.607843%);fill-opacity:1;" d="M 108.347656 40.09375 C 109.09375 39.648438 109.644531 41.71875 109.324219 43.148438 C 109.136719 44.429688 108.375 45.738281 107.832031 44.621094 C 107.285156 43.246094 107.539062 40.664062 108.347656 40.09375 Z M 108.347656 40.09375 "/>
<path style=" stroke:none;fill-rule:nonzero;fill:rgb(99.607843%,99.607843%,99.607843%);fill-opacity:1;" d="M 111.394531 42.058594 C 111.441406 41.453125 111.621094 41.015625 111.847656 40.699219 C 111.996094 40.996094 112.148438 41.296875 112.296875 41.597656 C 112.066406 42.261719 111.71875 42.78125 111.394531 42.058594 Z M 111.394531 42.058594 "/>
<path style=" stroke:none;fill-rule:nonzero;fill:rgb(99.607843%,99.607843%,99.607843%);fill-opacity:1;" d="M 106.398438 42.53125 C 106.835938 42.035156 107.328125 42.832031 107.386719 43.859375 C 107.542969 45.074219 107.140625 47.015625 106.492188 46.695312 C 105.839844 45.933594 105.78125 43.445312 106.398438 42.53125 Z M 106.398438 42.53125 "/>
<path style=" stroke:none;fill-rule:nonzero;fill:rgb(99.607843%,99.607843%,99.607843%);fill-opacity:1;" d="M 110.398438 43.25 C 110.644531 42.679688 111.164062 42.71875 111.285156 43.550781 C 111.457031 44.792969 110.589844 45.972656 110.21875 44.867188 C 110.152344 44.3125 110.167969 43.605469 110.398438 43.25 Z M 110.398438 43.25 "/>
<path style=" stroke:none;fill-rule:nonzero;fill:rgb(99.607843%,99.607843%,99.607843%);fill-opacity:1;" d="M 109.171875 44.625 C 109.542969 44.179688 110.054688 44.867188 110.058594 45.800781 C 110.070312 47.066406 109.371094 48.386719 108.851562 47.605469 C 108.421875 46.703125 108.6875 45.128906 109.171875 44.625 Z M 109.171875 44.625 "/>
<path style=" stroke:none;fill-rule:nonzero;fill:rgb(99.607843%,99.607843%,99.607843%);fill-opacity:1;" d="M 105.511719 48.523438 C 105.136719 47.949219 104.894531 46.484375 105.339844 45.796875 C 105.964844 45.875 105.925781 47.851562 105.511719 48.523438 Z M 105.511719 48.523438 "/>
<path style=" stroke:none;fill-rule:nonzero;fill:rgb(99.607843%,99.607843%,99.607843%);fill-opacity:1;" d="M 107.558594 45.96875 C 108.046875 45.292969 108.636719 46.40625 108.558594 47.589844 C 108.550781 48.824219 107.902344 50.328125 107.355469 49.5 C 106.917969 48.527344 107.023438 46.65625 107.558594 45.96875 Z M 107.558594 45.96875 "/>
<path style=" stroke:none;fill-rule:nonzero;fill:rgb(99.607843%,99.607843%,99.607843%);fill-opacity:1;" d="M 105.9375 49.746094 C 105.730469 48.878906 105.910156 47.738281 106.320312 47.386719 C 107.101562 47.34375 107.195312 50.101562 106.582031 50.828125 C 106.273438 51.261719 105.996094 50.5625 105.953125 49.894531 C 105.832031 50.660156 105.742188 51.464844 105.507812 52.101562 C 104.886719 51.589844 104.78125 48.800781 105.636719 49.054688 L 105.515625 49.457031 C 105.625 49.53125 105.832031 49.675781 105.9375 49.746094 Z M 105.9375 49.746094 "/>
<path style=" stroke:none;fill-rule:nonzero;fill:rgb(99.607843%,99.607843%,99.607843%);fill-opacity:1;" d="M 109.179688 49.878906 C 109.246094 48.667969 109.875 47.539062 110.394531 48.242188 C 110.546875 48.796875 110.386719 49.40625 110.339844 49.976562 L 110.347656 49.785156 C 110.21875 50.085938 109.964844 50.683594 109.835938 50.984375 L 110.34375 50.675781 C 110.921875 51.058594 109.941406 53.234375 109.621094 52.167969 L 109.730469 51.347656 L 109.921875 51.5 C 109.847656 51.253906 109.773438 51.015625 109.699219 50.773438 C 109.425781 51.328125 109.078125 50.554688 109.179688 49.878906 Z M 109.179688 49.878906 "/>
</g>
</svg>
