<?xml version="1.0" encoding="UTF-8" standalone="no"?>
<!DOCTYPE svg PUBLIC "-//W3C//DTD SVG 1.1//EN" "http://www.w3.org/Graphics/SVG/1.1/DTD/svg11.dtd">
<svg xmlns="http://www.w3.org/2000/svg" version="1.1" viewBox="0 0 536 157" width="120.0pt" height="120.0pt" xmlns:xlink="http://www.w3.org/1999/xlink">
<defs>
<path d="M 0.00 0.00 L 536.00 0.00 L 536.00 157.00 L 0.00 157.00 L 0.00 0.00 Z M 109.42 138.07 C 109.37 131.27 109.65 124.44 109.23 117.66 C 107.03 118.94 104.99 120.42 102.99 122.00 C 92.96 129.74 80.63 133.95 68.00 134.48 C 57.97 134.15 48.38 132.01 40.47 125.53 C 33.44 120.17 29.12 111.82 26.58 103.53 C 23.24 91.39 23.53 77.90 26.81 65.77 C 29.83 55.29 36.17 45.21 46.05 40.03 C 52.22 36.94 59.08 35.28 66.00 35.44 C 79.74 34.85 93.55 40.38 104.21 48.84 C 105.79 50.12 107.53 51.02 109.40 51.80 C 109.50 45.14 109.39 38.47 109.47 31.81 L 109.04 31.09 C 101.66 27.66 94.51 24.43 86.50 22.69 C 72.51 19.86 58.52 19.36 44.80 23.87 C 32.77 27.81 22.21 35.85 15.76 46.81 C 10.51 55.50 7.82 65.92 6.86 75.96 C 6.49 85.09 6.23 94.86 8.26 103.79 C 10.75 115.92 16.05 127.21 25.48 135.47 C 37.10 146.05 52.65 149.42 68.00 149.12 C 82.86 149.33 96.30 144.62 109.42 138.07 Z M 248.37 146.87 C 254.09 146.85 259.81 146.86 265.53 146.85 C 265.53 127.09 265.53 107.34 265.53 87.58 C 283.37 87.27 301.23 87.60 319.08 87.41 C 319.11 82.40 319.13 77.39 319.05 72.38 C 301.25 72.42 283.44 72.48 265.64 72.34 C 265.48 60.86 265.43 49.32 265.66 37.84 C 286.47 37.71 307.29 37.80 328.10 37.79 C 328.15 32.57 328.65 27.74 327.64 22.58 C 305.09 22.65 282.55 22.59 260.00 22.61 C 256.20 22.66 252.35 22.42 248.57 22.77 C 248.38 24.16 248.36 25.59 248.33 27.00 C 248.39 66.96 248.32 106.92 248.37 146.87 Z M 161.99 24.69 C 147.33 65.44 132.36 106.10 117.65 146.84 C 123.49 146.88 129.34 146.84 135.18 146.87 C 139.37 135.44 142.93 123.76 147.42 112.46 C 164.96 112.48 182.51 112.27 200.03 112.57 C 203.95 124.00 208.14 135.34 212.01 146.79 C 218.10 146.92 224.19 146.84 230.28 146.86 C 224.02 128.38 217.02 110.14 210.39 91.79 C 202.11 68.69 193.65 45.66 185.20 22.62 C 177.81 22.76 170.32 22.28 162.96 22.84 L 161.99 24.69 Z M 331.59 146.91 C 337.42 146.83 343.25 146.86 349.07 146.86 C 352.40 137.54 355.70 128.20 358.85 118.83 C 359.61 116.63 360.50 114.49 361.47 112.38 C 378.98 112.61 396.52 112.16 414.02 112.61 C 417.84 124.04 422.06 135.34 425.90 146.76 C 432.00 146.94 438.12 146.83 444.23 146.86 C 436.90 125.41 428.66 104.27 421.11 82.90 C 413.91 62.77 406.39 42.76 399.16 22.64 C 391.75 22.72 384.26 22.35 376.87 22.79 C 375.72 24.87 374.99 27.24 374.18 29.48 C 369.19 43.48 364.09 57.44 358.95 71.38 C 352.15 89.90 345.60 108.52 338.73 127.01 C 336.34 133.64 333.78 140.21 331.59 146.91 Z M 448.51 122.61 C 462.68 122.95 476.87 122.55 491.05 122.82 C 491.24 130.85 491.16 138.91 491.09 146.95 C 499.43 146.82 507.77 146.91 516.11 146.89 C 516.13 138.85 516.13 130.81 516.11 122.77 C 519.60 122.73 523.10 122.73 526.59 122.74 C 526.58 116.19 526.56 109.65 526.61 103.10 C 523.11 103.09 519.62 103.08 516.12 103.06 C 516.11 78.59 516.14 54.12 516.10 29.66 C 511.40 29.63 506.67 29.47 501.97 29.71 C 494.55 38.46 487.96 47.96 480.92 57.03 C 470.75 69.93 461.74 83.67 452.13 97.01 C 450.47 99.52 448.34 101.77 448.46 104.96 C 448.36 110.84 448.45 116.73 448.51 122.61 Z" id="p0" />
<path d="M 86.50 22.69 C 94.51 24.43 101.66 27.66 109.04 31.09 L 109.47 31.81 C 109.39 38.47 109.50 45.14 109.40 51.80 C 107.53 51.02 105.79 50.12 104.21 48.84 C 93.55 40.38 79.74 34.85 66.00 35.44 C 59.08 35.28 52.22 36.94 46.05 40.03 C 36.17 45.21 29.83 55.29 26.81 65.77 C 23.53 77.90 23.24 91.39 26.58 103.53 C 29.12 111.82 33.44 120.17 40.47 125.53 C 48.38 132.01 57.97 134.15 68.00 134.48 C 80.63 133.95 92.96 129.74 102.99 122.00 C 104.99 120.42 107.03 118.94 109.23 117.66 C 109.65 124.44 109.37 131.27 109.42 138.07 C 96.30 144.62 82.86 149.33 68.00 149.12 C 52.65 149.42 37.10 146.05 25.48 135.47 C 16.05 127.21 10.75 115.92 8.26 103.79 C 6.23 94.86 6.49 85.09 6.86 75.96 C 7.82 65.92 10.51 55.50 15.76 46.81 C 22.21 35.85 32.77 27.81 44.80 23.87 C 58.52 19.36 72.51 19.86 86.50 22.69 Z" id="p1" />
<path d="M 248.57 22.77 C 252.35 22.42 256.20 22.66 260.00 22.61 C 282.55 22.59 305.09 22.65 327.64 22.58 C 328.65 27.74 328.15 32.57 328.10 37.79 C 307.29 37.80 286.47 37.71 265.66 37.84 C 265.43 49.32 265.48 60.86 265.64 72.34 C 283.44 72.48 301.25 72.42 319.05 72.38 C 319.13 77.39 319.11 82.40 319.08 87.41 C 301.23 87.60 283.37 87.27 265.53 87.58 C 265.53 107.34 265.53 127.09 265.53 146.85 C 259.81 146.86 254.09 146.85 248.37 146.87 C 248.32 106.92 248.39 66.96 248.33 27.00 C 248.36 25.59 248.38 24.16 248.57 22.77 Z" id="p2" />
<path d="M 162.96 22.84 C 170.32 22.28 177.81 22.76 185.20 22.62 C 193.65 45.66 202.11 68.69 210.39 91.79 C 217.02 110.14 224.02 128.38 230.28 146.86 C 224.19 146.84 218.10 146.92 212.01 146.79 C 208.14 135.34 203.95 124.00 200.03 112.57 C 182.51 112.27 164.96 112.48 147.42 112.46 C 142.93 123.76 139.37 135.44 135.18 146.87 C 129.34 146.84 123.49 146.88 117.65 146.84 C 132.36 106.10 147.33 65.44 161.99 24.69 L 162.96 22.84 Z M 172.91 40.87 C 166.62 57.43 161.02 74.36 154.88 91.00 C 154.03 93.26 153.28 95.55 152.55 97.85 C 166.62 97.67 180.73 98.14 194.78 97.61 C 187.79 78.45 180.88 59.25 174.17 40.00 C 173.75 40.28 173.33 40.57 172.91 40.87 Z" id="p3" />
<path d="M 376.87 22.79 C 384.26 22.35 391.75 22.72 399.16 22.64 C 406.39 42.76 413.91 62.77 421.11 82.90 C 428.66 104.27 436.90 125.41 444.23 146.86 C 438.12 146.83 432.00 146.94 425.90 146.76 C 422.06 135.34 417.84 124.04 414.02 112.61 C 396.52 112.16 378.98 112.61 361.47 112.38 C 360.50 114.49 359.61 116.63 358.85 118.83 C 355.70 128.20 352.40 137.54 349.07 146.86 C 343.25 146.86 337.42 146.83 331.59 146.91 C 333.78 140.21 336.34 133.64 338.73 127.01 C 345.60 108.52 352.15 89.90 358.95 71.38 C 364.09 57.44 369.19 43.48 374.18 29.48 C 374.99 27.24 375.72 24.87 376.87 22.79 Z M 386.83 40.80 C 382.08 53.25 377.86 65.95 373.30 78.48 C 371.11 84.98 368.43 91.30 366.48 97.86 C 380.54 97.65 394.65 98.14 408.71 97.61 C 401.64 78.51 394.86 59.30 388.14 40.08 C 387.70 40.31 387.26 40.56 386.83 40.80 Z" id="p4" />
<path d="M 501.97 29.71 C 506.67 29.47 511.40 29.63 516.10 29.66 C 516.14 54.12 516.11 78.59 516.12 103.06 C 519.62 103.08 523.11 103.09 526.61 103.10 C 526.56 109.65 526.58 116.19 526.59 122.74 C 523.10 122.73 519.60 122.73 516.11 122.77 C 516.13 130.81 516.13 138.85 516.11 146.89 C 507.77 146.91 499.43 146.82 491.09 146.95 C 491.16 138.91 491.24 130.85 491.05 122.82 C 476.87 122.55 462.68 122.95 448.51 122.61 C 448.45 116.73 448.36 110.84 448.46 104.96 C 448.34 101.77 450.47 99.52 452.13 97.01 C 461.74 83.67 470.75 69.93 480.92 57.03 C 487.96 47.96 494.55 38.46 501.97 29.71 Z M 457.03 103.03 C 468.40 103.11 479.79 103.15 491.16 103.01 C 491.08 87.17 491.39 71.30 491.00 55.47 C 488.43 58.17 486.39 61.23 484.27 64.27 C 477.98 72.99 471.88 81.85 465.61 90.58 C 462.72 94.73 459.63 98.68 457.03 103.03 Z" id="p5" />
<path d="M 174.17 40.00 C 180.88 59.25 187.79 78.45 194.78 97.61 C 180.73 98.14 166.62 97.67 152.55 97.85 C 153.28 95.55 154.03 93.26 154.88 91.00 C 161.02 74.36 166.62 57.43 172.91 40.87 C 173.33 40.57 173.75 40.28 174.17 40.00 Z" id="p6" />
<path d="M 388.14 40.08 C 394.86 59.30 401.64 78.51 408.71 97.61 C 394.65 98.14 380.54 97.65 366.48 97.86 C 368.43 91.30 371.11 84.98 373.30 78.48 C 377.86 65.95 382.08 53.25 386.83 40.80 C 387.26 40.56 387.70 40.31 388.14 40.08 Z" id="p7" />
<path d="M 491.00 55.47 C 491.39 71.30 491.08 87.17 491.16 103.01 C 479.79 103.15 468.40 103.11 457.03 103.03 C 459.63 98.68 462.72 94.73 465.61 90.58 C 471.88 81.85 477.98 72.99 484.27 64.27 C 486.39 61.23 488.43 58.17 491.00 55.47 Z" id="p8" />
</defs>
<g>
<use fill="#ffffff" xlink:href="#p0" />
<use fill="#157ebb" xlink:href="#p1" />
<use fill="#157ebb" xlink:href="#p2" />
<use fill="#157ebb" xlink:href="#p3" />
<use fill="#157ebb" xlink:href="#p4" />
<use fill="#5a5a5a" xlink:href="#p5" />
<use fill="#ffffff" xlink:href="#p6" />
<use fill="#ffffff" xlink:href="#p7" />
<use fill="#ffffff" xlink:href="#p8" />
</g>
</svg>