<?xml version="1.0" encoding="UTF-8" standalone="no"?>
<!DOCTYPE svg PUBLIC "-//W3C//DTD SVG 1.1//EN" "http://www.w3.org/Graphics/SVG/1.1/DTD/svg11.dtd">
<svg xmlns="http://www.w3.org/2000/svg" version="1.1" viewBox="0 0 125 50" width="125.0pt" height="125.0pt" xmlns:xlink="http://www.w3.org/1999/xlink">
<defs>
<path d="M 0.00 0.00 L 125.00 0.00 L 125.00 50.00 L 0.00 50.00 L 0.00 0.00 Z M 2.41 2.54 C 2.11 3.90 1.56 5.46 1.85 6.84 C 2.69 7.91 3.68 8.73 4.78 9.53 C 5.97 9.14 7.17 8.74 8.36 8.33 C 8.81 6.48 9.90 5.13 8.64 3.32 C 7.09 0.66 4.72 1.65 2.41 2.54 Z M 14.23 8.65 C 50.67 8.42 87.13 8.71 123.57 8.49 C 123.60 6.40 123.61 4.31 123.66 2.22 C 89.77 2.09 55.88 2.23 22.00 2.16 C 19.48 2.16 16.91 2.07 14.41 2.32 C 13.81 4.43 13.96 6.50 14.23 8.65 Z M 13.78 14.41 C 13.72 25.54 13.73 36.67 13.77 47.80 C 20.83 48.19 28.60 48.86 34.77 44.69 C 40.39 40.65 41.85 33.46 41.10 26.94 C 40.36 22.13 37.72 17.78 33.19 15.71 C 27.15 12.96 20.17 13.84 13.78 14.41 Z M 41.79 47.69 C 43.30 47.73 44.80 47.77 46.30 47.81 C 47.46 44.28 48.61 40.76 49.71 37.21 C 53.66 37.20 57.61 37.22 61.56 37.16 C 62.80 40.67 63.99 44.19 65.12 47.73 C 66.68 47.74 68.24 47.75 69.80 47.76 C 66.03 36.52 62.18 25.30 58.41 14.05 C 56.63 14.10 54.84 14.13 53.06 14.16 C 49.39 25.37 45.56 36.52 41.79 47.69 Z M 73.71 42.56 C 73.29 43.79 72.84 45.02 72.36 46.24 C 77.44 48.50 83.47 49.39 88.47 46.47 C 93.17 43.54 94.12 36.61 90.57 32.45 C 87.51 29.26 82.32 28.49 79.18 25.84 C 76.74 23.58 77.18 19.84 79.90 18.03 C 83.33 16.26 86.90 17.32 90.29 18.58 C 90.69 17.35 91.09 16.12 91.49 14.89 C 87.58 13.79 84.03 12.74 79.99 14.06 C 76.30 15.09 73.39 18.08 73.26 22.04 C 72.95 24.98 74.27 27.60 76.56 29.40 C 79.44 31.69 83.59 32.45 86.49 34.67 C 89.06 36.82 89.05 41.26 86.25 43.23 C 82.52 45.89 77.46 44.42 73.71 42.56 Z M 98.11 14.13 C 98.07 25.32 98.17 36.51 98.07 47.70 C 99.52 47.73 100.96 47.77 102.40 47.82 C 102.43 42.52 102.41 37.23 102.41 31.93 C 107.79 31.89 113.18 31.90 118.56 31.94 C 118.56 37.23 118.56 42.53 118.62 47.82 C 120.06 47.78 121.49 47.75 122.93 47.74 C 122.91 36.56 122.87 25.38 122.96 14.21 C 121.51 14.14 120.05 14.09 118.60 14.05 C 118.56 18.78 118.60 23.52 118.56 28.25 C 113.19 28.16 107.82 28.15 102.45 28.26 C 102.39 23.54 102.41 18.82 102.39 14.10 C 100.96 14.10 99.54 14.11 98.11 14.13 Z M 2.54 15.29 C 2.63 26.11 2.51 36.92 2.59 47.74 C 4.55 47.72 6.50 47.71 8.46 47.71 C 8.47 36.93 8.46 26.15 8.46 15.37 C 6.48 15.35 4.51 15.32 2.54 15.29 Z" id="p0" />
<path d="M 8.64 3.32 C 9.90 5.13 8.81 6.48 8.36 8.33 C 7.17 8.74 5.97 9.14 4.78 9.53 C 3.68 8.73 2.69 7.91 1.85 6.84 C 1.56 5.46 2.11 3.90 2.41 2.54 C 4.72 1.65 7.09 0.66 8.64 3.32 Z" id="p1" />
<path d="M 14.41 2.32 C 16.91 2.07 19.48 2.16 22.00 2.16 C 55.88 2.23 89.77 2.09 123.66 2.22 C 123.61 4.31 123.60 6.40 123.57 8.49 C 87.13 8.71 50.67 8.42 14.23 8.65 C 13.96 6.50 13.81 4.43 14.41 2.32 Z" id="p2" />
<path d="M 13.78 14.41 C 20.17 13.84 27.15 12.96 33.19 15.71 C 37.72 17.78 40.36 22.13 41.10 26.94 C 41.85 33.46 40.39 40.65 34.77 44.69 C 28.60 48.86 20.83 48.19 13.77 47.80 C 13.73 36.67 13.72 25.54 13.78 14.41 Z M 18.19 44.52 C 23.00 44.51 27.28 44.99 31.49 42.18 C 35.94 39.11 37.09 33.09 36.59 28.03 C 36.32 24.01 33.93 20.29 30.25 18.60 C 26.64 16.98 22.16 17.09 18.32 17.62 C 17.89 26.54 18.24 35.57 18.19 44.52 Z" id="p3" />
<path d="M 53.06 14.16 C 54.84 14.13 56.63 14.10 58.41 14.05 C 62.18 25.30 66.03 36.52 69.80 47.76 C 68.24 47.75 66.68 47.74 65.12 47.73 C 63.99 44.19 62.80 40.67 61.56 37.16 C 57.61 37.22 53.66 37.20 49.71 37.21 C 48.61 40.76 47.46 44.28 46.30 47.81 C 44.80 47.77 43.30 47.73 41.79 47.69 C 45.56 36.52 49.39 25.37 53.06 14.16 Z M 55.77 17.66 C 54.31 23.10 52.51 28.43 50.65 33.75 C 53.99 33.77 57.34 33.79 60.69 33.78 C 58.83 28.44 56.86 23.23 55.77 17.66 Z" id="p4" />
<path d="M 79.99 14.06 C 84.03 12.74 87.58 13.79 91.49 14.89 C 91.09 16.12 90.69 17.35 90.29 18.58 C 86.90 17.32 83.33 16.26 79.90 18.03 C 77.18 19.84 76.74 23.58 79.18 25.84 C 82.32 28.49 87.51 29.26 90.57 32.45 C 94.12 36.61 93.17 43.54 88.47 46.47 C 83.47 49.39 77.44 48.50 72.36 46.24 C 72.84 45.02 73.29 43.79 73.71 42.56 C 77.46 44.42 82.52 45.89 86.25 43.23 C 89.05 41.26 89.06 36.82 86.49 34.67 C 83.59 32.45 79.44 31.69 76.56 29.40 C 74.27 27.60 72.95 24.98 73.26 22.04 C 73.39 18.08 76.30 15.09 79.99 14.06 Z" id="p5" />
<path d="M 98.11 14.13 C 99.54 14.11 100.96 14.10 102.39 14.10 C 102.41 18.82 102.39 23.54 102.45 28.26 C 107.82 28.15 113.19 28.16 118.56 28.25 C 118.60 23.52 118.56 18.78 118.60 14.05 C 120.05 14.09 121.51 14.14 122.96 14.21 C 122.87 25.38 122.91 36.56 122.93 47.74 C 121.49 47.75 120.06 47.78 118.62 47.82 C 118.56 42.53 118.56 37.23 118.56 31.94 C 113.18 31.90 107.79 31.89 102.41 31.93 C 102.41 37.23 102.43 42.52 102.40 47.82 C 100.96 47.77 99.52 47.73 98.07 47.70 C 98.17 36.51 98.07 25.32 98.11 14.13 Z" id="p6" />
<path d="M 8.46 15.37 C 8.46 26.15 8.47 36.93 8.46 47.71 C 6.50 47.71 4.55 47.72 2.59 47.74 C 2.51 36.92 2.63 26.11 2.54 15.29 C 4.51 15.32 6.48 15.35 8.46 15.37 Z" id="p7" />
<path d="M 18.32 17.62 C 22.16 17.09 26.64 16.98 30.25 18.60 C 33.93 20.29 36.32 24.01 36.59 28.03 C 37.09 33.09 35.94 39.11 31.49 42.18 C 27.28 44.99 23.00 44.51 18.19 44.52 C 18.24 35.57 17.89 26.54 18.32 17.62 Z" id="p8" />
<path d="M 55.77 17.66 C 56.86 23.23 58.83 28.44 60.69 33.78 C 57.34 33.79 53.99 33.77 50.65 33.75 C 52.51 28.43 54.31 23.10 55.77 17.66 Z" id="p9" />
</defs>
<g>
<use fill="#fefefe" xlink:href="#p0" />
<use fill="#04acf0" xlink:href="#p1" />
<use fill="#04acf0" xlink:href="#p2" />
<use fill="#212121" xlink:href="#p3" />
<use fill="#212121" xlink:href="#p4" />
<use fill="#212121" xlink:href="#p5" />
<use fill="#212121" xlink:href="#p6" />
<use fill="#04acf0" xlink:href="#p7" />
<use fill="#fefefe" xlink:href="#p8" />
<use fill="#fefefe" xlink:href="#p9" />
</g>
</svg>