<?xml version="1.0" encoding="UTF-8" standalone="no"?>
<!DOCTYPE svg PUBLIC "-//W3C//DTD SVG 1.1//EN" "http://www.w3.org/Graphics/SVG/1.1/DTD/svg11.dtd">
<svg xmlns="http://www.w3.org/2000/svg" version="1.1" viewBox="0 0 144 144" width="120.0pt" height="120.0pt" xmlns:xlink="http://www.w3.org/1999/xlink">
<defs>
<path d="M 0.00 0.00 L 144.00 0.00 L 144.00 144.00 L 0.00 144.00 L 0.00 0.00 Z M 58.97 43.86 C 54.86 43.86 50.75 43.86 46.64 43.84 C 46.53 47.46 47.11 51.59 46.07 55.08 C 45.44 56.92 42.34 56.94 42.10 54.81 C 41.17 51.07 41.74 46.84 41.66 43.00 C 41.89 35.55 40.99 28.27 42.32 21.16 C 43.67 21.29 45.03 21.42 46.38 21.55 C 46.69 26.18 46.63 30.80 46.56 35.44 C 50.74 35.39 54.93 35.37 59.12 35.33 C 59.09 30.81 59.33 25.89 58.24 21.48 C 56.88 16.51 51.76 13.88 46.96 13.36 C 43.46 13.10 39.37 12.94 36.04 14.19 C 33.53 15.87 30.51 19.98 29.65 22.88 C 28.73 27.44 29.20 32.36 29.08 37.00 C 29.20 43.19 28.50 49.98 30.02 56.00 C 31.13 60.36 34.80 62.90 39.03 63.80 C 45.53 65.21 53.25 64.08 57.13 58.11 C 59.39 54.13 58.80 48.32 58.97 43.86 Z M 83.43 62.75 C 87.68 62.99 91.92 63.19 96.17 63.25 C 96.42 60.29 96.67 57.33 96.91 54.37 C 98.54 54.36 100.17 54.36 101.80 54.36 C 102.05 57.33 102.27 60.30 102.48 63.28 C 106.69 63.23 110.91 63.21 115.12 63.22 C 112.94 46.87 110.29 30.59 108.01 14.25 C 101.96 14.35 95.82 13.92 89.80 14.39 C 87.27 30.39 85.82 46.71 83.43 62.75 Z M 97.57 78.94 C 95.57 80.80 93.85 82.72 92.21 84.90 C 94.79 83.05 97.33 81.14 99.98 79.38 C 102.56 81.36 105.05 83.45 107.53 85.55 C 106.12 82.85 104.50 81.00 102.21 79.01 C 104.04 77.35 105.73 75.63 107.33 73.74 C 104.71 75.15 102.27 76.81 99.80 78.44 C 97.29 76.79 94.88 75.02 92.39 73.36 C 94.00 75.34 95.72 77.18 97.57 78.94 Z M 51.40 124.90 C 51.78 126.17 52.17 127.44 52.55 128.70 C 55.41 128.70 58.27 128.69 61.13 128.67 C 61.17 119.06 61.11 109.46 61.17 99.85 C 55.82 99.85 50.47 99.87 45.12 99.88 C 45.00 102.48 44.91 105.08 44.85 107.68 C 45.84 107.73 46.84 107.78 47.83 107.83 C 47.85 112.07 47.81 116.30 47.39 120.53 C 45.97 120.64 44.56 120.75 43.14 120.84 C 42.28 114.63 42.45 108.26 42.47 102.00 C 42.67 95.22 42.08 89.05 43.20 82.43 C 44.39 82.46 45.58 82.49 46.77 82.52 C 47.43 86.47 47.37 90.41 47.44 94.39 C 52.02 94.36 56.59 94.35 61.16 94.31 C 60.96 89.67 61.55 83.32 58.54 79.46 C 54.40 74.15 47.26 73.00 40.94 73.86 C 35.49 74.61 30.08 78.47 29.28 84.21 C 28.42 90.38 28.88 96.78 28.78 103.00 C 28.88 108.55 28.41 114.33 29.36 119.81 C 30.84 126.89 38.70 131.21 45.55 129.40 C 47.82 128.71 49.71 126.50 51.40 124.90 Z M 99.89 91.43 C 97.86 90.38 95.84 89.32 93.80 88.28 C 95.32 89.50 96.87 90.68 98.43 91.86 C 96.78 93.09 95.16 94.36 93.56 95.65 C 95.61 94.58 97.74 93.31 99.93 92.55 C 102.28 93.57 104.46 95.14 106.65 96.48 C 105.00 94.87 103.28 93.37 101.52 91.90 C 103.25 90.50 104.93 89.06 106.53 87.52 C 104.30 88.80 102.11 90.14 99.89 91.43 Z M 99.95 104.49 C 97.34 102.71 94.82 100.81 92.23 99.00 C 93.95 101.09 95.74 102.96 97.76 104.76 C 95.71 106.53 93.88 108.38 92.24 110.54 C 94.75 108.66 97.25 106.76 99.90 105.07 C 102.59 106.98 105.13 109.07 107.69 111.13 C 106.04 108.72 104.24 106.72 102.06 104.78 C 104.63 102.83 106.08 101.20 107.41 98.23 C 104.98 100.39 102.52 102.51 99.95 104.49 Z M 107.47 124.22 C 104.95 126.26 102.45 128.29 99.81 130.17 C 97.18 128.40 94.71 126.42 92.28 124.37 C 94.20 127.24 96.14 130.46 100.00 130.65 C 104.05 130.29 105.65 127.40 107.47 124.22 Z" id="p0" />
<path d="M 46.96 13.36 C 51.76 13.88 56.88 16.51 58.24 21.48 C 59.33 25.89 59.09 30.81 59.12 35.33 C 54.93 35.37 50.74 35.39 46.56 35.44 C 46.63 30.80 46.69 26.18 46.38 21.55 C 45.03 21.42 43.67 21.29 42.32 21.16 C 40.99 28.27 41.89 35.55 41.66 43.00 C 41.74 46.84 41.17 51.07 42.10 54.81 C 42.34 56.94 45.44 56.92 46.07 55.08 C 47.11 51.59 46.53 47.46 46.64 43.84 C 50.75 43.86 54.86 43.86 58.97 43.86 C 58.80 48.32 59.39 54.13 57.13 58.11 C 53.25 64.08 45.53 65.21 39.03 63.80 C 34.80 62.90 31.13 60.36 30.02 56.00 C 28.50 49.98 29.20 43.19 29.08 37.00 C 29.20 32.36 28.73 27.44 29.65 22.88 C 30.51 19.98 33.53 15.87 36.04 14.19 C 39.37 12.94 43.46 13.10 46.96 13.36 Z" id="p1" />
<path d="M 89.80 14.39 C 95.82 13.92 101.96 14.35 108.01 14.25 C 110.29 30.59 112.94 46.87 115.12 63.22 C 110.91 63.21 106.69 63.23 102.48 63.28 C 102.27 60.30 102.05 57.33 101.80 54.36 C 100.17 54.36 98.54 54.36 96.91 54.37 C 96.67 57.33 96.42 60.29 96.17 63.25 C 91.92 63.19 87.68 62.99 83.43 62.75 C 85.82 46.71 87.27 30.39 89.80 14.39 Z M 96.65 45.75 C 98.27 45.91 99.89 46.07 101.50 46.23 C 100.74 39.19 100.31 32.09 99.23 25.09 C 98.17 31.93 97.46 38.86 96.65 45.75 Z" id="p2" />
<path d="M 99.23 25.09 C 100.31 32.09 100.74 39.19 101.50 46.23 C 99.89 46.07 98.27 45.91 96.65 45.75 C 97.46 38.86 98.17 31.93 99.23 25.09 Z" id="p3" />
<path d="M 92.39 73.36 C 94.88 75.02 97.29 76.79 99.80 78.44 C 102.27 76.81 104.71 75.15 107.33 73.74 C 105.73 75.63 104.04 77.35 102.21 79.01 C 104.50 81.00 106.12 82.85 107.53 85.55 C 105.05 83.45 102.56 81.36 99.98 79.38 C 97.33 81.14 94.79 83.05 92.21 84.90 C 93.85 82.72 95.57 80.80 97.57 78.94 C 95.72 77.18 94.00 75.34 92.39 73.36 Z" id="p4" />
<path d="M 40.94 73.86 C 47.26 73.00 54.40 74.15 58.54 79.46 C 61.55 83.32 60.96 89.67 61.16 94.31 C 56.59 94.35 52.02 94.36 47.44 94.39 C 47.37 90.41 47.43 86.47 46.77 82.52 C 45.58 82.49 44.39 82.46 43.20 82.43 C 42.08 89.05 42.67 95.22 42.47 102.00 C 42.45 108.26 42.28 114.63 43.14 120.84 C 44.56 120.75 45.97 120.64 47.39 120.53 C 47.81 116.30 47.85 112.07 47.83 107.83 C 46.84 107.78 45.84 107.73 44.85 107.68 C 44.91 105.08 45.00 102.48 45.12 99.88 C 50.47 99.87 55.82 99.85 61.17 99.85 C 61.11 109.46 61.17 119.06 61.13 128.67 C 58.27 128.69 55.41 128.70 52.55 128.70 C 52.17 127.44 51.78 126.17 51.40 124.90 C 49.71 126.50 47.82 128.71 45.55 129.40 C 38.70 131.21 30.84 126.89 29.36 119.81 C 28.41 114.33 28.88 108.55 28.78 103.00 C 28.88 96.78 28.42 90.38 29.28 84.21 C 30.08 78.47 35.49 74.61 40.94 73.86 Z" id="p5" />
<path d="M 106.53 87.52 C 104.93 89.06 103.25 90.50 101.52 91.90 C 103.28 93.37 105.00 94.87 106.65 96.48 C 104.46 95.14 102.28 93.57 99.93 92.55 C 97.74 93.31 95.61 94.58 93.56 95.65 C 95.16 94.36 96.78 93.09 98.43 91.86 C 96.87 90.68 95.32 89.50 93.80 88.28 C 95.84 89.32 97.86 90.38 99.89 91.43 C 102.11 90.14 104.30 88.80 106.53 87.52 Z" id="p6" />
<path d="M 107.41 98.23 C 106.08 101.20 104.63 102.83 102.06 104.78 C 104.24 106.72 106.04 108.72 107.69 111.13 C 105.13 109.07 102.59 106.98 99.90 105.07 C 97.25 106.76 94.75 108.66 92.24 110.54 C 93.88 108.38 95.71 106.53 97.76 104.76 C 95.74 102.96 93.95 101.09 92.23 99.00 C 94.82 100.81 97.34 102.71 99.95 104.49 C 102.52 102.51 104.98 100.39 107.41 98.23 Z" id="p7" />
<path d="M 92.28 124.37 C 94.71 126.42 97.18 128.40 99.81 130.17 C 102.45 128.29 104.95 126.26 107.47 124.22 C 105.65 127.40 104.05 130.29 100.00 130.65 C 96.14 130.46 94.20 127.24 92.28 124.37 Z" id="p8" />
</defs>
<g>
<use fill="#ffffff" xlink:href="#p0" />
<use fill="#615173" xlink:href="#p1" />
<use fill="#615173" xlink:href="#p2" />
<use fill="#ffffff" xlink:href="#p3" />
<use fill="#615173" xlink:href="#p4" />
<use fill="#615173" xlink:href="#p5" />
<use fill="#615173" xlink:href="#p6" />
<use fill="#615173" xlink:href="#p7" />
<use fill="#615173" xlink:href="#p8" />
</g>
</svg>