<?xml version="1.0" encoding="UTF-8" standalone="no"?>
<!DOCTYPE svg PUBLIC "-//W3C//DTD SVG 1.1//EN" "http://www.w3.org/Graphics/SVG/1.1/DTD/svg11.dtd">
<svg xmlns="http://www.w3.org/2000/svg" version="1.1" viewBox="0 0 2175 482" width="120.0pt" height="120.0pt" xmlns:xlink="http://www.w3.org/1999/xlink">
<defs>
<path d="M 0.00 0.00 L 1978.29 0.00 C 1970.39 1.84 1968.20 10.80 1971.59 17.43 C 1974.22 22.98 1981.08 25.70 1986.58 22.61 C 1992.05 19.34 1993.29 12.01 1990.45 6.57 C 1988.78 3.10 1985.72 0.89 1982.01 0.00 L 2175.00 0.00 L 2175.00 72.92 C 2172.60 65.57 2163.81 63.96 2157.69 67.74 C 2151.62 71.30 2149.21 80.08 2154.67 85.31 C 2161.53 91.13 2172.60 86.73 2175.00 78.41 L 2175.00 482.00 L 21.75 482.00 C 21.81 453.42 21.64 424.83 21.84 396.26 C 28.62 411.07 41.86 420.80 56.99 425.96 C 89.83 437.05 128.57 425.17 150.37 398.40 C 162.62 383.48 169.16 364.30 168.48 345.00 C 167.98 329.02 163.43 312.09 153.87 299.09 C 143.29 286.92 131.11 276.34 116.17 269.91 C 97.90 262.02 77.16 261.59 58.23 267.39 C 42.86 272.15 29.05 280.67 20.54 294.67 C 20.45 285.37 20.59 276.06 20.45 266.76 C 13.64 266.77 6.82 266.77 0.00 266.77 L 0.00 0.00 Z M 1990.45 27.57 C 1983.56 28.90 1978.54 35.14 1977.69 41.96 C 1976.38 50.53 1980.63 60.07 1988.99 63.29 C 1996.58 66.41 2005.44 62.05 2008.71 54.78 C 2012.62 47.15 2010.83 37.31 2004.47 31.57 C 2000.66 28.21 1995.48 26.57 1990.45 27.57 Z M 2009.19 65.18 C 1998.96 67.90 1992.90 77.73 1992.64 87.95 C 1992.43 95.49 1995.61 103.65 2001.80 108.20 C 2006.68 111.85 2013.07 112.74 2018.81 110.75 C 2028.57 107.43 2035.01 97.15 2034.78 87.00 C 2034.92 78.78 2030.53 70.66 2023.15 66.84 C 2018.89 64.60 2013.86 63.93 2009.19 65.18 Z M 2129.45 77.58 C 2119.80 79.60 2112.54 89.07 2114.01 98.99 C 2114.80 105.29 2119.76 110.54 2126.02 111.65 C 2137.53 113.81 2149.62 103.80 2149.28 92.02 C 2149.24 86.15 2145.69 80.95 2140.36 78.60 C 2137.03 77.05 2133.01 76.88 2129.45 77.58 Z M 2085.51 92.77 C 2072.26 96.30 2064.44 110.89 2068.15 123.97 C 2070.23 131.19 2076.39 136.81 2083.99 137.51 C 2098.25 138.89 2111.94 125.23 2110.89 110.99 C 2111.02 102.17 2104.42 94.25 2095.81 92.53 C 2092.44 91.99 2088.85 92.00 2085.51 92.77 Z M 2036.51 107.75 C 2027.67 110.16 2020.89 117.41 2018.07 125.99 C 2014.81 135.57 2016.04 147.26 2023.20 154.80 C 2028.28 160.10 2036.00 161.97 2043.02 159.94 C 2057.75 155.92 2067.57 138.76 2063.66 124.01 C 2062.46 119.03 2059.58 114.56 2055.52 111.42 C 2050.18 107.24 2043.03 106.04 2036.51 107.75 Z M 2125.46 119.59 C 2119.74 121.73 2116.35 128.71 2119.84 134.17 C 2123.64 139.61 2131.98 138.67 2136.04 134.05 C 2139.22 130.82 2139.82 124.83 2136.51 121.50 C 2133.66 118.61 2129.13 118.19 2125.46 119.59 Z M 1989.45 131.62 C 1977.12 135.96 1972.09 150.90 1975.04 162.83 C 1976.81 169.76 1981.58 176.06 1988.97 177.34 C 1996.93 178.62 2004.13 173.76 2008.36 167.37 C 2014.26 158.45 2015.18 146.27 2008.50 137.49 C 2004.00 131.65 1996.49 129.29 1989.45 131.62 Z M 2100.54 136.81 C 2091.99 139.30 2086.34 148.29 2088.87 157.04 C 2090.81 163.83 2098.34 167.56 2105.00 165.71 C 2112.00 164.07 2117.78 158.23 2118.66 151.00 C 2119.24 146.02 2117.08 140.89 2112.69 138.31 C 2109.11 136.01 2104.57 135.86 2100.54 136.81 Z M 2066.20 149.16 C 2054.56 150.84 2046.61 162.63 2048.51 174.06 C 2049.62 181.39 2055.42 187.56 2062.99 188.09 C 2077.01 189.03 2089.05 174.42 2085.17 160.83 C 2082.78 152.65 2074.52 147.87 2066.20 149.16 Z M 1956.55 159.79 C 1947.91 162.84 1944.37 172.45 1945.19 181.00 C 1945.44 187.92 1950.33 195.88 1958.00 195.71 C 1965.78 195.47 1971.31 187.84 1972.79 180.80 C 1974.43 173.80 1972.48 164.97 1966.02 160.99 C 1963.23 159.14 1959.72 159.00 1956.55 159.79 Z M 2024.57 161.89 C 2012.03 163.74 2004.12 175.83 2004.57 188.00 C 2004.73 196.96 2010.42 206.60 2019.96 207.75 C 2031.15 209.25 2040.88 200.83 2044.46 190.76 C 2046.90 183.93 2046.44 175.86 2042.23 169.80 C 2038.50 164.19 2031.22 160.97 2024.57 161.89 Z M 1982.47 182.64 C 1971.25 185.81 1966.31 199.43 1969.18 209.97 C 1970.96 217.28 1977.08 223.39 1985.06 222.37 C 1994.80 220.90 2001.72 210.42 2001.78 201.01 C 2002.06 194.30 1999.17 187.21 1993.05 183.93 C 1989.84 182.05 1986.05 181.97 1982.47 182.64 Z M 1937.20 192.08 C 1933.52 192.05 1930.77 195.61 1929.60 198.76 C 1927.88 203.38 1928.21 209.58 1931.76 213.28 C 1933.86 215.43 1936.96 216.10 1939.65 214.61 C 1944.54 211.94 1946.29 206.26 1945.77 200.97 C 1945.57 196.29 1942.47 191.42 1937.20 192.08 Z M 2074.11 200.81 C 2064.37 202.84 2057.20 213.19 2058.12 223.01 C 2057.99 228.71 2062.10 234.24 2067.99 234.64 C 2074.64 235.30 2081.01 230.83 2084.64 225.57 C 2088.46 220.33 2090.21 212.73 2087.27 206.71 C 2084.78 201.84 2079.35 199.79 2074.11 200.81 Z M 1953.18 207.18 C 1944.40 210.28 1941.56 221.73 1944.35 229.84 C 1946.38 235.55 1951.31 239.43 1957.56 237.48 C 1966.34 234.11 1969.93 221.97 1966.19 213.78 C 1964.05 208.77 1958.60 205.38 1953.18 207.18 Z M 664.21 247.82 C 671.39 247.83 678.56 247.83 685.74 247.82 C 685.74 235.61 685.74 223.41 685.74 211.21 C 678.59 211.27 671.43 211.07 664.29 211.28 C 664.10 223.44 664.27 235.65 664.21 247.82 Z M 873.75 211.26 C 873.75 223.43 873.75 235.59 873.75 247.76 C 881.04 247.89 888.32 247.81 895.61 247.82 C 895.61 235.61 895.61 223.41 895.61 211.21 C 888.32 211.22 881.04 211.15 873.75 211.26 Z M 1311.66 211.21 C 1311.65 282.93 1311.65 354.65 1311.66 426.38 C 1325.05 426.39 1338.44 426.39 1351.83 426.38 C 1351.83 396.97 1351.82 367.56 1351.83 338.16 C 1391.70 338.14 1431.56 338.16 1471.42 338.14 C 1471.51 325.21 1471.41 312.28 1471.47 299.35 C 1431.60 299.26 1391.72 299.34 1351.84 299.30 C 1351.82 282.81 1351.81 266.31 1351.85 249.81 C 1395.69 249.80 1439.54 249.81 1483.38 249.81 C 1483.39 236.94 1483.39 224.07 1483.38 211.20 C 1426.14 211.20 1368.90 211.20 1311.66 211.21 Z M 1513.54 211.21 C 1513.53 282.93 1513.53 354.65 1513.54 426.38 C 1533.69 426.40 1553.85 426.37 1574.00 426.39 C 1593.70 426.16 1612.26 426.34 1630.85 418.82 C 1646.98 412.11 1661.31 400.74 1672.15 387.10 C 1686.67 368.31 1694.96 344.74 1695.44 321.01 C 1695.54 300.71 1690.26 280.46 1680.26 262.80 C 1671.00 246.59 1658.02 232.91 1640.89 225.03 C 1619.32 214.95 1593.52 212.12 1569.97 211.30 C 1551.17 211.08 1532.35 211.25 1513.54 211.21 Z M 1691.12 426.51 C 1705.98 426.60 1720.84 426.57 1735.70 426.53 C 1743.65 407.92 1751.65 389.32 1759.72 370.76 C 1784.98 370.73 1810.25 370.87 1835.51 370.69 C 1843.53 389.16 1851.28 407.77 1858.95 426.39 C 1873.88 426.72 1888.86 426.58 1903.80 426.46 C 1875.19 358.60 1846.52 290.76 1817.91 222.89 C 1816.13 218.80 1814.56 214.65 1812.56 210.67 C 1802.23 210.80 1791.91 210.72 1781.58 210.70 C 1779.93 213.28 1779.01 216.02 1777.83 218.82 C 1750.63 283.95 1723.38 349.07 1696.17 414.20 C 1694.46 418.30 1692.69 422.36 1691.12 426.51 Z M 1934.10 230.92 C 1928.16 233.49 1926.85 242.74 1930.19 247.78 C 1931.82 250.49 1935.19 251.39 1938.00 250.03 C 1943.72 246.53 1945.35 237.33 1940.65 232.36 C 1938.96 230.48 1936.42 230.02 1934.10 230.92 Z M 2077.45 237.54 C 2071.10 239.42 2066.59 246.53 2067.58 253.07 C 2068.12 256.68 2071.32 259.32 2075.03 258.82 C 2082.68 257.79 2088.66 249.01 2086.40 241.48 C 2085.00 237.83 2081.05 236.43 2077.45 237.54 Z M 1923.47 250.49 C 1920.10 252.70 1919.82 257.91 1921.95 261.05 C 1924.56 262.91 1927.69 261.65 1928.59 258.65 C 1930.24 255.03 1928.59 248.60 1923.47 250.49 Z M 1004.51 429.86 C 1020.25 431.14 1036.55 427.17 1050.15 419.15 C 1076.99 403.56 1093.80 373.01 1092.82 342.01 C 1092.37 309.03 1070.31 278.48 1040.06 266.01 C 1016.95 256.26 989.74 258.53 968.21 271.21 C 951.81 280.84 938.81 296.21 931.99 313.95 C 926.83 327.18 925.06 341.72 926.65 355.81 C 928.62 372.99 936.17 389.42 947.81 402.19 C 962.14 418.20 982.99 428.69 1004.51 429.86 Z M 1930.42 263.48 C 1923.83 265.37 1921.68 272.95 1923.44 278.98 C 1925.09 285.26 1930.56 291.02 1937.56 289.46 C 1945.65 287.35 1947.68 276.61 1944.04 270.04 C 1941.50 265.07 1935.95 262.13 1930.42 263.48 Z M 2070.72 275.63 C 2074.20 276.13 2076.74 276.08 2079.05 273.04 C 2081.29 270.63 2082.48 264.88 2078.54 263.52 C 2072.26 262.35 2067.67 270.31 2070.72 275.63 Z M 219.75 290.23 C 219.41 282.41 219.74 274.58 219.54 266.76 C 213.69 266.78 207.84 266.77 201.99 266.74 C 200.22 266.70 198.68 266.65 198.78 268.89 C 198.77 321.37 198.78 373.86 198.78 426.34 C 206.06 426.44 213.34 426.35 220.62 426.40 C 220.72 395.60 220.59 364.79 220.69 333.99 C 220.86 323.55 221.78 313.79 228.21 305.14 C 234.60 296.84 243.71 289.53 253.96 286.79 C 257.87 285.59 261.81 285.34 265.85 284.91 C 265.99 277.75 265.87 270.59 265.93 263.43 C 254.22 263.82 242.08 266.35 232.57 273.55 C 226.78 277.86 222.60 283.64 219.75 290.23 Z M 441.06 374.30 C 433.52 374.24 425.98 374.25 418.44 374.30 C 412.36 388.06 400.69 398.30 386.95 404.05 C 375.61 408.76 362.61 410.61 350.51 408.17 C 333.04 404.58 317.14 393.28 308.20 377.82 C 304.07 370.65 301.72 362.80 301.23 354.53 C 349.37 354.48 397.52 354.53 445.66 354.51 C 445.55 337.16 443.19 319.89 434.28 304.70 C 423.86 286.97 406.67 273.17 387.00 267.09 C 361.81 259.27 333.25 264.20 312.27 280.23 C 297.35 291.47 286.54 307.88 282.03 326.01 C 278.05 341.99 278.74 359.24 284.20 374.79 C 289.30 389.43 298.69 402.57 310.89 412.15 C 329.23 426.72 353.96 432.97 377.02 428.86 C 405.65 423.58 431.79 402.11 441.06 374.30 Z M 634.32 379.54 C 626.24 379.52 618.15 379.43 610.07 379.59 C 601.69 391.41 590.77 401.17 576.84 405.80 C 562.39 410.48 546.06 410.59 531.76 405.27 C 518.13 400.31 506.44 390.42 499.27 377.81 C 493.99 368.71 491.40 358.48 490.89 348.02 C 490.59 333.92 495.05 319.86 503.84 308.78 C 520.93 286.96 552.75 278.34 578.49 288.65 C 591.52 293.77 603.02 303.31 610.10 315.42 C 618.29 315.58 626.49 315.49 634.68 315.48 C 629.36 301.82 620.44 290.03 608.74 281.20 C 592.36 268.71 571.55 262.47 550.99 263.57 C 520.93 265.05 492.29 282.34 478.32 309.21 C 463.21 337.57 467.08 374.53 487.90 399.05 C 512.78 429.29 558.70 438.70 593.81 421.78 C 611.91 413.10 626.13 397.78 634.32 379.54 Z M 746.20 379.43 C 737.66 379.26 729.10 379.33 720.55 379.39 C 720.08 389.24 723.26 398.96 729.12 406.85 C 738.20 419.28 752.91 427.19 768.01 429.40 C 778.32 430.88 789.07 429.98 799.09 427.20 C 811.42 423.69 822.69 416.71 830.01 406.02 C 837.31 395.48 839.69 381.65 836.90 369.21 C 835.06 361.20 830.29 354.24 823.88 349.17 C 815.77 342.71 805.32 338.62 795.52 335.54 C 786.66 332.68 777.21 330.89 768.79 327.31 C 763.47 325.02 758.35 321.70 755.45 316.54 C 752.93 312.20 752.70 306.77 753.51 301.93 C 755.07 295.50 759.71 290.45 765.51 287.47 C 772.57 283.71 781.44 283.65 789.05 285.52 C 796.39 287.32 803.17 291.64 806.25 298.77 C 807.45 301.28 807.59 303.90 807.77 306.63 C 816.29 306.76 824.85 306.75 833.37 306.63 C 833.15 296.85 829.09 287.65 822.46 280.51 C 811.90 269.22 796.37 263.28 781.01 263.44 C 763.76 263.54 745.20 270.54 734.95 284.97 C 726.81 296.11 725.12 311.40 730.94 323.95 C 734.50 331.93 741.03 338.14 748.48 342.51 C 758.68 348.33 771.53 350.99 782.80 354.06 C 790.41 356.19 798.47 359.25 804.48 364.53 C 809.73 369.11 812.81 376.01 812.52 383.00 C 812.63 391.57 807.69 399.12 800.58 403.60 C 787.61 411.66 769.42 411.17 757.25 401.75 C 750.34 396.40 745.74 388.34 746.20 379.43 Z M 1144.19 289.99 C 1143.35 282.31 1144.09 274.49 1143.75 266.76 C 1136.98 266.74 1130.21 266.82 1123.44 266.71 C 1123.21 270.81 1123.27 274.90 1123.29 279.00 C 1123.27 328.12 1123.31 377.24 1123.27 426.35 C 1130.52 426.42 1137.77 426.38 1145.02 426.38 C 1145.05 399.25 1145.01 372.12 1145.04 345.00 C 1145.37 333.93 1144.86 321.69 1149.29 311.32 C 1155.37 297.07 1169.98 287.31 1185.02 284.92 C 1198.12 282.91 1212.32 286.01 1223.02 293.95 C 1232.05 300.41 1238.65 310.29 1241.03 321.15 C 1243.29 329.51 1242.45 337.46 1243.19 346.00 C 1243.20 372.79 1243.19 399.58 1243.19 426.38 C 1250.40 426.39 1257.62 426.39 1264.83 426.38 C 1264.83 399.25 1264.82 372.13 1264.83 345.00 C 1264.71 332.05 1264.40 319.50 1259.89 307.17 C 1255.97 296.42 1249.02 287.03 1240.05 279.95 C 1224.71 267.41 1204.08 261.42 1184.43 264.07 C 1174.13 265.40 1164.34 269.67 1156.43 276.40 C 1151.65 280.32 1147.83 285.03 1144.19 289.99 Z M 664.26 266.79 C 664.14 319.98 664.25 373.19 664.21 426.38 C 671.39 426.39 678.57 426.40 685.74 426.37 C 685.73 377.91 685.75 329.46 685.74 281.00 C 685.71 276.23 685.87 271.47 685.57 266.70 C 678.47 266.85 671.37 266.71 664.26 266.79 Z M 873.87 266.88 C 873.75 270.25 873.70 273.62 873.75 277.00 C 873.75 326.78 873.75 376.57 873.75 426.35 C 881.03 426.43 888.31 426.37 895.59 426.39 C 895.57 373.19 895.72 319.94 895.52 266.75 C 888.30 266.84 881.08 266.63 873.87 266.88 Z M 2062.52 288.33 C 2064.99 289.45 2067.12 290.28 2069.64 288.67 C 2072.04 287.36 2072.71 284.11 2071.00 282.00 C 2068.22 279.35 2063.41 280.57 2062.11 284.13 C 2061.54 285.38 2062.34 287.02 2062.52 288.33 Z M 2051.45 288.51 C 2046.72 289.64 2042.86 295.10 2045.19 299.80 C 2047.44 304.11 2053.14 304.14 2056.89 301.90 C 2060.22 299.95 2062.68 295.89 2060.89 292.08 C 2059.08 288.57 2055.08 287.60 2051.45 288.51 Z M 1943.26 291.31 C 1934.89 294.59 1932.17 304.72 1934.36 312.79 C 1936.07 319.95 1941.93 326.70 1949.98 325.20 C 1960.69 322.59 1965.43 308.63 1960.73 299.23 C 1957.79 292.67 1950.21 288.71 1943.26 291.31 Z M 2028.48 297.65 C 2020.96 299.71 2015.48 308.22 2018.43 315.83 C 2020.59 320.78 2026.00 322.33 2030.98 321.03 C 2038.24 319.34 2044.96 311.96 2042.71 304.15 C 2040.74 298.02 2034.27 296.21 2028.48 297.65 Z M 1998.20 310.19 C 1987.66 312.96 1981.48 326.04 1985.96 335.91 C 1988.08 340.54 1993.03 343.00 1998.02 342.36 C 2008.61 341.13 2018.21 329.50 2015.25 318.77 C 2013.20 311.44 2005.23 308.04 1998.20 310.19 Z M 1962.46 322.74 C 1953.67 325.97 1949.23 335.03 1949.14 344.00 C 1949.19 349.50 1951.06 355.90 1955.60 359.37 C 1958.99 362.14 1964.03 362.30 1968.01 360.94 C 1979.22 356.58 1986.22 341.98 1981.21 330.74 C 1978.11 323.67 1969.74 320.01 1962.46 322.74 Z M 2024.25 329.27 C 2020.64 330.81 2018.61 335.49 2021.12 338.84 C 2025.29 343.32 2034.46 339.22 2033.51 332.93 C 2032.82 328.76 2027.63 327.59 2024.25 329.27 Z M 1928.49 341.66 C 1922.20 345.38 1920.48 353.18 1921.09 359.99 C 1921.50 365.28 1923.92 371.44 1928.67 374.27 C 1932.95 376.55 1937.59 375.11 1940.88 371.87 C 1947.56 365.00 1949.09 352.71 1942.97 345.02 C 1939.52 340.66 1933.51 338.84 1928.49 341.66 Z M 2003.53 345.67 C 1998.13 348.29 1994.96 355.27 1998.21 360.72 C 2000.80 364.67 2006.78 364.51 2010.54 362.54 C 2015.33 360.22 2018.99 354.43 2016.67 349.16 C 2014.38 344.22 2008.03 343.43 2003.53 345.67 Z M 1979.36 358.44 C 1971.50 361.27 1967.38 370.22 1969.93 378.12 C 1971.12 381.02 1973.68 383.68 1976.94 384.01 C 1986.57 385.64 1996.38 375.23 1994.28 365.76 C 1992.82 359.26 1985.38 355.91 1979.36 358.44 Z M 1912.01 388.56 C 1919.57 386.29 1919.70 374.99 1914.98 370.05 C 1912.36 367.28 1907.79 367.42 1906.14 371.16 C 1903.83 376.85 1905.33 386.35 1912.01 388.56 Z M 1951.39 368.45 C 1944.57 371.02 1940.85 378.09 1941.11 385.18 C 1940.86 391.04 1943.09 397.07 1948.94 399.24 C 1955.34 400.93 1961.24 396.66 1964.53 391.50 C 1968.23 385.87 1969.13 377.78 1964.78 372.24 C 1961.61 368.15 1956.24 366.80 1951.39 368.45 Z M 1925.49 381.60 C 1922.68 382.69 1920.84 385.01 1919.72 387.74 C 1917.84 392.55 1918.06 398.14 1920.09 402.87 C 1921.23 405.41 1923.30 408.09 1926.12 408.83 C 1928.89 409.82 1932.36 408.37 1934.37 406.37 C 1939.92 400.73 1941.07 390.42 1935.68 384.31 C 1933.14 381.29 1929.19 380.49 1925.49 381.60 Z M 1990.43 386.48 C 1984.08 388.94 1979.23 395.19 1978.66 402.00 C 1978.52 404.57 1979.71 407.68 1982.24 408.71 C 1984.59 409.89 1987.78 408.98 1990.08 408.03 C 1995.39 405.56 2000.05 400.89 2001.92 395.28 C 2002.89 392.36 2002.43 389.07 1999.92 387.09 C 1997.05 385.10 1993.57 385.26 1990.43 386.48 Z M 1907.30 395.26 C 1903.74 397.08 1903.15 402.50 1903.55 406.02 C 1903.97 409.66 1905.80 414.96 1909.45 416.53 C 1913.17 418.09 1916.14 414.59 1917.26 411.42 C 1918.44 406.67 1918.18 401.05 1914.78 397.22 C 1912.94 395.16 1909.93 393.72 1907.30 395.26 Z M 1996.45 407.55 C 1992.66 408.94 1989.22 412.05 1987.75 415.85 C 1987.20 417.79 1986.87 420.09 1988.87 421.30 C 1991.04 422.32 1993.97 421.16 1995.89 420.02 C 1998.85 418.20 2001.84 415.38 2002.95 412.01 C 2003.58 410.23 2003.27 409.25 2002.23 407.79 C 2000.49 406.86 1998.28 406.99 1996.45 407.55 Z" id="p0" />
<path d="M 1978.29 0.00 L 1982.01 0.00 C 1985.72 0.89 1988.78 3.10 1990.45 6.57 C 1993.29 12.01 1992.05 19.34 1986.58 22.61 C 1981.08 25.70 1974.22 22.98 1971.59 17.43 C 1968.20 10.80 1970.39 1.84 1978.29 0.00 Z" id="p1" />
<path d="M 1990.45 27.57 C 1995.48 26.57 2000.66 28.21 2004.47 31.57 C 2010.83 37.31 2012.62 47.15 2008.71 54.78 C 2005.44 62.05 1996.58 66.41 1988.99 63.29 C 1980.63 60.07 1976.38 50.53 1977.69 41.96 C 1978.54 35.14 1983.56 28.90 1990.45 27.57 Z" id="p2" />
<path d="M 2009.19 65.18 C 2013.86 63.93 2018.89 64.60 2023.15 66.84 C 2030.53 70.66 2034.92 78.78 2034.78 87.00 C 2035.01 97.15 2028.57 107.43 2018.81 110.75 C 2013.07 112.74 2006.68 111.85 2001.80 108.20 C 1995.61 103.65 1992.43 95.49 1992.64 87.95 C 1992.90 77.73 1998.96 67.90 2009.19 65.18 Z" id="p3" />
<path d="M 2175.00 72.92 L 2175.00 78.41 C 2172.60 86.73 2161.53 91.13 2154.67 85.31 C 2149.21 80.08 2151.62 71.30 2157.69 67.74 C 2163.81 63.96 2172.60 65.57 2175.00 72.92 Z" id="p4" />
<path d="M 2129.45 77.58 C 2133.01 76.88 2137.03 77.05 2140.36 78.60 C 2145.69 80.95 2149.24 86.15 2149.28 92.02 C 2149.62 103.80 2137.53 113.81 2126.02 111.65 C 2119.76 110.54 2114.80 105.29 2114.01 98.99 C 2112.54 89.07 2119.80 79.60 2129.45 77.58 Z" id="p5" />
<path d="M 2085.51 92.77 C 2088.85 92.00 2092.44 91.99 2095.81 92.53 C 2104.42 94.25 2111.02 102.17 2110.89 110.99 C 2111.94 125.23 2098.25 138.89 2083.99 137.51 C 2076.39 136.81 2070.23 131.19 2068.15 123.97 C 2064.44 110.89 2072.26 96.30 2085.51 92.77 Z" id="p6" />
<path d="M 2036.51 107.75 C 2043.03 106.04 2050.18 107.24 2055.52 111.42 C 2059.58 114.56 2062.46 119.03 2063.66 124.01 C 2067.57 138.76 2057.75 155.92 2043.02 159.94 C 2036.00 161.97 2028.28 160.10 2023.20 154.80 C 2016.04 147.26 2014.81 135.57 2018.07 125.99 C 2020.89 117.41 2027.67 110.16 2036.51 107.75 Z" id="p7" />
<path d="M 2125.46 119.59 C 2129.13 118.19 2133.66 118.61 2136.51 121.50 C 2139.82 124.83 2139.22 130.82 2136.04 134.05 C 2131.98 138.67 2123.64 139.61 2119.84 134.17 C 2116.35 128.71 2119.74 121.73 2125.46 119.59 Z" id="p8" />
<path d="M 1989.45 131.62 C 1996.49 129.29 2004.00 131.65 2008.50 137.49 C 2015.18 146.27 2014.26 158.45 2008.36 167.37 C 2004.13 173.76 1996.93 178.62 1988.97 177.34 C 1981.58 176.06 1976.81 169.76 1975.04 162.83 C 1972.09 150.90 1977.12 135.96 1989.45 131.62 Z" id="p9" />
<path d="M 2100.54 136.81 C 2104.57 135.86 2109.11 136.01 2112.69 138.31 C 2117.08 140.89 2119.24 146.02 2118.66 151.00 C 2117.78 158.23 2112.00 164.07 2105.00 165.71 C 2098.34 167.56 2090.81 163.83 2088.87 157.04 C 2086.34 148.29 2091.99 139.30 2100.54 136.81 Z" id="p10" />
<path d="M 2066.20 149.16 C 2074.52 147.87 2082.78 152.65 2085.17 160.83 C 2089.05 174.42 2077.01 189.03 2062.99 188.09 C 2055.42 187.56 2049.62 181.39 2048.51 174.06 C 2046.61 162.63 2054.56 150.84 2066.20 149.16 Z" id="p11" />
<path d="M 1956.55 159.79 C 1959.72 159.00 1963.23 159.14 1966.02 160.99 C 1972.48 164.97 1974.43 173.80 1972.79 180.80 C 1971.31 187.84 1965.78 195.47 1958.00 195.71 C 1950.33 195.88 1945.44 187.92 1945.19 181.00 C 1944.37 172.45 1947.91 162.84 1956.55 159.79 Z" id="p12" />
<path d="M 2024.57 161.89 C 2031.22 160.97 2038.50 164.19 2042.23 169.80 C 2046.44 175.86 2046.90 183.93 2044.46 190.76 C 2040.88 200.83 2031.15 209.25 2019.96 207.75 C 2010.42 206.60 2004.73 196.96 2004.57 188.00 C 2004.12 175.83 2012.03 163.74 2024.57 161.89 Z" id="p13" />
<path d="M 1982.47 182.64 C 1986.05 181.97 1989.84 182.05 1993.05 183.93 C 1999.17 187.21 2002.06 194.30 2001.78 201.01 C 2001.72 210.42 1994.80 220.90 1985.06 222.37 C 1977.08 223.39 1970.96 217.28 1969.18 209.97 C 1966.31 199.43 1971.25 185.81 1982.47 182.64 Z" id="p14" />
<path d="M 1937.20 192.08 C 1942.47 191.42 1945.57 196.29 1945.77 200.97 C 1946.29 206.26 1944.54 211.94 1939.65 214.61 C 1936.96 216.10 1933.86 215.43 1931.76 213.28 C 1928.21 209.58 1927.88 203.38 1929.60 198.76 C 1930.77 195.61 1933.52 192.05 1937.20 192.08 Z" id="p15" />
<path d="M 2074.11 200.81 C 2079.35 199.79 2084.78 201.84 2087.27 206.71 C 2090.21 212.73 2088.46 220.33 2084.64 225.57 C 2081.01 230.83 2074.64 235.30 2067.99 234.64 C 2062.10 234.24 2057.99 228.71 2058.12 223.01 C 2057.20 213.19 2064.37 202.84 2074.11 200.81 Z" id="p16" />
<path d="M 1953.18 207.18 C 1958.60 205.38 1964.05 208.77 1966.19 213.78 C 1969.93 221.97 1966.34 234.11 1957.56 237.48 C 1951.31 239.43 1946.38 235.55 1944.35 229.84 C 1941.56 221.73 1944.40 210.28 1953.18 207.18 Z" id="p17" />
<path d="M 664.29 211.28 C 671.43 211.07 678.59 211.27 685.74 211.21 C 685.74 223.41 685.74 235.61 685.74 247.82 C 678.56 247.83 671.39 247.83 664.21 247.82 C 664.27 235.65 664.10 223.44 664.29 211.28 Z" id="p18" />
<path d="M 873.75 211.26 C 881.04 211.15 888.32 211.22 895.61 211.21 C 895.61 223.41 895.61 235.61 895.61 247.82 C 888.32 247.81 881.04 247.89 873.75 247.76 C 873.75 235.59 873.75 223.43 873.75 211.26 Z" id="p19" />
<path d="M 1311.66 211.21 C 1368.90 211.20 1426.14 211.20 1483.38 211.20 C 1483.39 224.07 1483.39 236.94 1483.38 249.81 C 1439.54 249.81 1395.69 249.80 1351.85 249.81 C 1351.81 266.31 1351.82 282.81 1351.84 299.30 C 1391.72 299.34 1431.60 299.26 1471.47 299.35 C 1471.41 312.28 1471.51 325.21 1471.42 338.14 C 1431.56 338.16 1391.70 338.14 1351.83 338.16 C 1351.82 367.56 1351.83 396.97 1351.83 426.38 C 1338.44 426.39 1325.05 426.39 1311.66 426.38 C 1311.65 354.65 1311.65 282.93 1311.66 211.21 Z" id="p20" />
<path d="M 1513.54 211.21 C 1532.35 211.25 1551.17 211.08 1569.97 211.30 C 1593.52 212.12 1619.32 214.95 1640.89 225.03 C 1658.02 232.91 1671.00 246.59 1680.26 262.80 C 1690.26 280.46 1695.54 300.71 1695.44 321.01 C 1694.96 344.74 1686.67 368.31 1672.15 387.10 C 1661.31 400.74 1646.98 412.11 1630.85 418.82 C 1612.26 426.34 1593.70 426.16 1574.00 426.39 C 1553.85 426.37 1533.69 426.40 1513.54 426.38 C 1513.53 354.65 1513.53 282.93 1513.54 211.21 Z M 1553.68 250.15 C 1553.70 295.90 1553.66 341.65 1553.70 387.41 C 1567.80 387.62 1581.83 387.34 1595.80 385.23 C 1608.23 383.18 1621.41 379.47 1631.28 371.28 C 1644.00 360.82 1652.50 345.30 1654.59 328.97 C 1656.99 311.26 1652.58 292.48 1642.11 277.92 C 1635.19 268.51 1626.15 260.82 1615.00 256.96 C 1595.48 249.99 1574.13 250.04 1553.68 250.15 Z" id="p21" />
<path d="M 1781.58 210.70 C 1791.91 210.72 1802.23 210.80 1812.56 210.67 C 1814.56 214.65 1816.13 218.80 1817.91 222.89 C 1846.52 290.76 1875.19 358.60 1903.80 426.46 C 1888.86 426.58 1873.88 426.72 1858.95 426.39 C 1851.28 407.77 1843.53 389.16 1835.51 370.69 C 1810.25 370.87 1784.98 370.73 1759.72 370.76 C 1751.65 389.32 1743.65 407.92 1735.70 426.53 C 1720.84 426.57 1705.98 426.60 1691.12 426.51 C 1692.69 422.36 1694.46 418.30 1696.17 414.20 C 1723.38 349.07 1750.63 283.95 1777.83 218.82 C 1779.01 216.02 1779.93 213.28 1781.58 210.70 Z M 1774.39 331.63 C 1789.52 331.66 1804.66 331.65 1819.79 331.64 C 1812.21 310.24 1804.59 288.85 1797.11 267.42 C 1789.58 288.83 1782.02 310.25 1774.39 331.63 Z" id="p22" />
<path d="M 1934.10 230.92 C 1936.42 230.02 1938.96 230.48 1940.65 232.36 C 1945.35 237.33 1943.72 246.53 1938.00 250.03 C 1935.19 251.39 1931.82 250.49 1930.19 247.78 C 1926.85 242.74 1928.16 233.49 1934.10 230.92 Z" id="p23" />
<path d="M 2077.45 237.54 C 2081.05 236.43 2085.00 237.83 2086.40 241.48 C 2088.66 249.01 2082.68 257.79 2075.03 258.82 C 2071.32 259.32 2068.12 256.68 2067.58 253.07 C 2066.59 246.53 2071.10 239.42 2077.45 237.54 Z" id="p24" />
<path d="M 1615.00 256.96 C 1626.15 260.82 1635.19 268.51 1642.11 277.92 C 1652.58 292.48 1656.99 311.26 1654.59 328.97 C 1652.50 345.30 1644.00 360.82 1631.28 371.28 C 1621.41 379.47 1608.23 383.18 1595.80 385.23 C 1581.83 387.34 1567.80 387.62 1553.70 387.41 C 1553.66 341.65 1553.70 295.90 1553.68 250.15 C 1574.13 250.04 1595.48 249.99 1615.00 256.96 Z" id="p25" />
<path d="M 1923.47 250.49 C 1928.59 248.60 1930.24 255.03 1928.59 258.65 C 1927.69 261.65 1924.56 262.91 1921.95 261.05 C 1919.82 257.91 1920.10 252.70 1923.47 250.49 Z" id="p26" />
<path d="M 1040.06 266.01 C 1070.31 278.48 1092.37 309.03 1092.82 342.01 C 1093.80 373.01 1076.99 403.56 1050.15 419.15 C 1036.55 427.17 1020.25 431.14 1004.51 429.86 C 982.99 428.69 962.14 418.20 947.81 402.19 C 936.17 389.42 928.62 372.99 926.65 355.81 C 925.06 341.72 926.83 327.18 931.99 313.95 C 938.81 296.21 951.81 280.84 968.21 271.21 C 989.74 258.53 1016.95 256.26 1040.06 266.01 Z M 1070.91 339.02 C 1070.30 326.61 1065.86 314.63 1057.92 305.05 C 1047.90 292.65 1033.34 283.96 1017.49 281.77 C 1003.01 279.75 987.78 283.48 975.74 291.75 C 953.84 306.58 943.50 334.92 949.55 360.51 C 953.00 375.35 962.08 388.68 974.50 397.47 C 984.73 404.74 997.41 408.99 1010.00 408.73 C 1025.15 409.02 1040.42 402.85 1051.18 392.18 C 1065.31 378.79 1072.46 358.28 1070.91 339.02 Z" id="p27" />
<path d="M 1930.42 263.48 C 1935.95 262.13 1941.50 265.07 1944.04 270.04 C 1947.68 276.61 1945.65 287.35 1937.56 289.46 C 1930.56 291.02 1925.09 285.26 1923.44 278.98 C 1921.68 272.95 1923.83 265.37 1930.42 263.48 Z" id="p28" />
<path d="M 2078.54 263.52 C 2082.48 264.88 2081.29 270.63 2079.05 273.04 C 2076.74 276.08 2074.20 276.13 2070.72 275.63 C 2067.67 270.31 2072.26 262.35 2078.54 263.52 Z" id="p29" />
<path d="M 116.17 269.91 C 131.11 276.34 143.29 286.92 153.87 299.09 C 163.43 312.09 167.98 329.02 168.48 345.00 C 169.16 364.30 162.62 383.48 150.37 398.40 C 128.57 425.17 89.83 437.05 56.99 425.96 C 41.86 420.80 28.62 411.07 21.84 396.26 C 21.64 424.83 21.81 453.42 21.75 482.00 L 0.00 482.00 L 0.00 266.77 C 6.82 266.77 13.64 266.77 20.45 266.76 C 20.59 276.06 20.45 285.37 20.54 294.67 C 29.05 280.67 42.86 272.15 58.23 267.39 C 77.16 261.59 97.90 262.02 116.17 269.91 Z M 74.14 285.01 C 60.43 286.98 47.01 293.34 37.36 303.37 C 26.14 314.48 19.94 330.24 20.26 346.00 C 20.20 358.68 23.01 371.12 30.32 381.65 C 38.44 392.87 49.59 401.74 62.85 406.04 C 87.49 414.32 116.64 406.34 133.06 386.03 C 141.99 375.14 146.89 361.08 146.67 347.00 C 146.87 329.09 138.70 311.51 125.21 299.79 C 111.38 287.50 92.39 282.24 74.14 285.01 Z" id="p30" />
<path d="M 265.93 263.43 C 265.87 270.59 265.99 277.75 265.85 284.91 C 261.81 285.34 257.87 285.59 253.96 286.79 C 243.71 289.53 234.60 296.84 228.21 305.14 C 221.78 313.79 220.86 323.55 220.69 333.99 C 220.59 364.79 220.72 395.60 220.62 426.40 C 213.34 426.35 206.06 426.44 198.78 426.34 C 198.78 373.86 198.77 321.37 198.78 268.89 C 198.68 266.65 200.22 266.70 201.99 266.74 C 207.84 266.77 213.69 266.78 219.54 266.76 C 219.74 274.58 219.41 282.41 219.75 290.23 C 222.60 283.64 226.78 277.86 232.57 273.55 C 242.08 266.35 254.22 263.82 265.93 263.43 Z" id="p31" />
<path d="M 387.00 267.09 C 406.67 273.17 423.86 286.97 434.28 304.70 C 443.19 319.89 445.55 337.16 445.66 354.51 C 397.52 354.53 349.37 354.48 301.23 354.53 C 301.72 362.80 304.07 370.65 308.20 377.82 C 317.14 393.28 333.04 404.58 350.51 408.17 C 362.61 410.61 375.61 408.76 386.95 404.05 C 400.69 398.30 412.36 388.06 418.44 374.30 C 425.98 374.25 433.52 374.24 441.06 374.30 C 431.79 402.11 405.65 423.58 377.02 428.86 C 353.96 432.97 329.23 426.72 310.89 412.15 C 298.69 402.57 289.30 389.43 284.20 374.79 C 278.74 359.24 278.05 341.99 282.03 326.01 C 286.54 307.88 297.35 291.47 312.27 280.23 C 333.25 264.20 361.81 259.27 387.00 267.09 Z M 301.24 334.64 C 342.14 334.74 383.05 334.71 423.96 334.66 C 420.98 320.41 412.95 307.47 401.62 298.36 C 390.63 289.33 376.27 283.97 362.00 284.35 C 347.99 284.50 334.22 289.55 323.28 298.28 C 311.84 307.31 304.04 320.35 301.24 334.64 Z" id="p32" />
<path d="M 550.99 263.57 C 571.55 262.47 592.36 268.71 608.74 281.20 C 620.44 290.03 629.36 301.82 634.68 315.48 C 626.49 315.49 618.29 315.58 610.10 315.42 C 603.02 303.31 591.52 293.77 578.49 288.65 C 552.75 278.34 520.93 286.96 503.84 308.78 C 495.05 319.86 490.59 333.92 490.89 348.02 C 491.40 358.48 493.99 368.71 499.27 377.81 C 506.44 390.42 518.13 400.31 531.76 405.27 C 546.06 410.59 562.39 410.48 576.84 405.80 C 590.77 401.17 601.69 391.41 610.07 379.59 C 618.15 379.43 626.24 379.52 634.32 379.54 C 626.13 397.78 611.91 413.10 593.81 421.78 C 558.70 438.70 512.78 429.29 487.90 399.05 C 467.08 374.53 463.21 337.57 478.32 309.21 C 492.29 282.34 520.93 265.05 550.99 263.57 Z" id="p33" />
<path d="M 781.01 263.44 C 796.37 263.28 811.90 269.22 822.46 280.51 C 829.09 287.65 833.15 296.85 833.37 306.63 C 824.85 306.75 816.29 306.76 807.77 306.63 C 807.59 303.90 807.45 301.28 806.25 298.77 C 803.17 291.64 796.39 287.32 789.05 285.52 C 781.44 283.65 772.57 283.71 765.51 287.47 C 759.71 290.45 755.07 295.50 753.51 301.93 C 752.70 306.77 752.93 312.20 755.45 316.54 C 758.35 321.70 763.47 325.02 768.79 327.31 C 777.21 330.89 786.66 332.68 795.52 335.54 C 805.32 338.62 815.77 342.71 823.88 349.17 C 830.29 354.24 835.06 361.20 836.90 369.21 C 839.69 381.65 837.31 395.48 830.01 406.02 C 822.69 416.71 811.42 423.69 799.09 427.20 C 789.07 429.98 778.32 430.88 768.01 429.40 C 752.91 427.19 738.20 419.28 729.12 406.85 C 723.26 398.96 720.08 389.24 720.55 379.39 C 729.10 379.33 737.66 379.26 746.20 379.43 C 745.74 388.34 750.34 396.40 757.25 401.75 C 769.42 411.17 787.61 411.66 800.58 403.60 C 807.69 399.12 812.63 391.57 812.52 383.00 C 812.81 376.01 809.73 369.11 804.48 364.53 C 798.47 359.25 790.41 356.19 782.80 354.06 C 771.53 350.99 758.68 348.33 748.48 342.51 C 741.03 338.14 734.50 331.93 730.94 323.95 C 725.12 311.40 726.81 296.11 734.95 284.97 C 745.20 270.54 763.76 263.54 781.01 263.44 Z" id="p34" />
<path d="M 1240.05 279.95 C 1249.02 287.03 1255.97 296.42 1259.89 307.17 C 1264.40 319.50 1264.71 332.05 1264.83 345.00 C 1264.82 372.13 1264.83 399.25 1264.83 426.38 C 1257.62 426.39 1250.40 426.39 1243.19 426.38 C 1243.19 399.58 1243.20 372.79 1243.19 346.00 C 1242.45 337.46 1243.29 329.51 1241.03 321.15 C 1238.65 310.29 1232.05 300.41 1223.02 293.95 C 1212.32 286.01 1198.12 282.91 1185.02 284.92 C 1169.98 287.31 1155.37 297.07 1149.29 311.32 C 1144.86 321.69 1145.37 333.93 1145.04 345.00 C 1145.01 372.12 1145.05 399.25 1145.02 426.38 C 1137.77 426.38 1130.52 426.42 1123.27 426.35 C 1123.31 377.24 1123.27 328.12 1123.29 279.00 C 1123.27 274.90 1123.21 270.81 1123.44 266.71 C 1130.21 266.82 1136.98 266.74 1143.75 266.76 C 1144.09 274.49 1143.35 282.31 1144.19 289.99 C 1147.83 285.03 1151.65 280.32 1156.43 276.40 C 1164.34 269.67 1174.13 265.40 1184.43 264.07 C 1204.08 261.42 1224.71 267.41 1240.05 279.95 Z" id="p35" />
<path d="M 664.26 266.79 C 671.37 266.71 678.47 266.85 685.57 266.70 C 685.87 271.47 685.71 276.23 685.74 281.00 C 685.75 329.46 685.73 377.91 685.74 426.37 C 678.57 426.40 671.39 426.39 664.21 426.38 C 664.25 373.19 664.14 319.98 664.26 266.79 Z" id="p36" />
<path d="M 873.87 266.88 C 881.08 266.63 888.30 266.84 895.52 266.75 C 895.72 319.94 895.57 373.19 895.59 426.39 C 888.31 426.37 881.03 426.43 873.75 426.35 C 873.75 376.57 873.75 326.78 873.75 277.00 C 873.70 273.62 873.75 270.25 873.87 266.88 Z" id="p37" />
<path d="M 1797.11 267.42 C 1804.59 288.85 1812.21 310.24 1819.79 331.64 C 1804.66 331.65 1789.52 331.66 1774.39 331.63 C 1782.02 310.25 1789.58 288.83 1797.11 267.42 Z" id="p38" />
<path d="M 1017.49 281.77 C 1033.34 283.96 1047.90 292.65 1057.92 305.05 C 1065.86 314.63 1070.30 326.61 1070.91 339.02 C 1072.46 358.28 1065.31 378.79 1051.18 392.18 C 1040.42 402.85 1025.15 409.02 1010.00 408.73 C 997.41 408.99 984.73 404.74 974.50 397.47 C 962.08 388.68 953.00 375.35 949.55 360.51 C 943.50 334.92 953.84 306.58 975.74 291.75 C 987.78 283.48 1003.01 279.75 1017.49 281.77 Z" id="p39" />
<path d="M 2071.00 282.00 C 2072.71 284.11 2072.04 287.36 2069.64 288.67 C 2067.12 290.28 2064.99 289.45 2062.52 288.33 C 2062.34 287.02 2061.54 285.38 2062.11 284.13 C 2063.41 280.57 2068.22 279.35 2071.00 282.00 Z" id="p40" />
<path d="M 74.14 285.01 C 92.39 282.24 111.38 287.50 125.21 299.79 C 138.70 311.51 146.87 329.09 146.67 347.00 C 146.89 361.08 141.99 375.14 133.06 386.03 C 116.64 406.34 87.49 414.32 62.85 406.04 C 49.59 401.74 38.44 392.87 30.32 381.65 C 23.01 371.12 20.20 358.68 20.26 346.00 C 19.94 330.24 26.14 314.48 37.36 303.37 C 47.01 293.34 60.43 286.98 74.14 285.01 Z" id="p41" />
<path d="M 362.00 284.35 C 376.27 283.97 390.63 289.33 401.62 298.36 C 412.95 307.47 420.98 320.41 423.96 334.66 C 383.05 334.71 342.14 334.74 301.24 334.64 C 304.04 320.35 311.84 307.31 323.28 298.28 C 334.22 289.55 347.99 284.50 362.00 284.35 Z" id="p42" />
<path d="M 2051.45 288.51 C 2055.08 287.60 2059.08 288.57 2060.89 292.08 C 2062.68 295.89 2060.22 299.95 2056.89 301.90 C 2053.14 304.14 2047.44 304.11 2045.19 299.80 C 2042.86 295.10 2046.72 289.64 2051.45 288.51 Z" id="p43" />
<path d="M 1943.26 291.31 C 1950.21 288.71 1957.79 292.67 1960.73 299.23 C 1965.43 308.63 1960.69 322.59 1949.98 325.20 C 1941.93 326.70 1936.07 319.95 1934.36 312.79 C 1932.17 304.72 1934.89 294.59 1943.26 291.31 Z" id="p44" />
<path d="M 2028.48 297.65 C 2034.27 296.21 2040.74 298.02 2042.71 304.15 C 2044.96 311.96 2038.24 319.34 2030.98 321.03 C 2026.00 322.33 2020.59 320.78 2018.43 315.83 C 2015.48 308.22 2020.96 299.71 2028.48 297.65 Z" id="p45" />
<path d="M 1998.20 310.19 C 2005.23 308.04 2013.20 311.44 2015.25 318.77 C 2018.21 329.50 2008.61 341.13 1998.02 342.36 C 1993.03 343.00 1988.08 340.54 1985.96 335.91 C 1981.48 326.04 1987.66 312.96 1998.20 310.19 Z" id="p46" />
<path d="M 1962.46 322.74 C 1969.74 320.01 1978.11 323.67 1981.21 330.74 C 1986.22 341.98 1979.22 356.58 1968.01 360.94 C 1964.03 362.30 1958.99 362.14 1955.60 359.37 C 1951.06 355.90 1949.19 349.50 1949.14 344.00 C 1949.23 335.03 1953.67 325.97 1962.46 322.74 Z" id="p47" />
<path d="M 2024.25 329.27 C 2027.63 327.59 2032.82 328.76 2033.51 332.93 C 2034.46 339.22 2025.29 343.32 2021.12 338.84 C 2018.61 335.49 2020.64 330.81 2024.25 329.27 Z" id="p48" />
<path d="M 1928.49 341.66 C 1933.51 338.84 1939.52 340.66 1942.97 345.02 C 1949.09 352.71 1947.56 365.00 1940.88 371.87 C 1937.59 375.11 1932.95 376.55 1928.67 374.27 C 1923.92 371.44 1921.50 365.28 1921.09 359.99 C 1920.48 353.18 1922.20 345.38 1928.49 341.66 Z" id="p49" />
<path d="M 2003.53 345.67 C 2008.03 343.43 2014.38 344.22 2016.67 349.16 C 2018.99 354.43 2015.33 360.22 2010.54 362.54 C 2006.78 364.51 2000.80 364.67 1998.21 360.72 C 1994.96 355.27 1998.13 348.29 2003.53 345.67 Z" id="p50" />
<path d="M 1979.36 358.44 C 1985.38 355.91 1992.82 359.26 1994.28 365.76 C 1996.38 375.23 1986.57 385.64 1976.94 384.01 C 1973.68 383.68 1971.12 381.02 1969.93 378.12 C 1967.38 370.22 1971.50 361.27 1979.36 358.44 Z" id="p51" />
<path d="M 1914.98 370.05 C 1919.70 374.99 1919.57 386.29 1912.01 388.56 C 1905.33 386.35 1903.83 376.85 1906.14 371.16 C 1907.79 367.42 1912.36 367.28 1914.98 370.05 Z" id="p52" />
<path d="M 1951.39 368.45 C 1956.24 366.80 1961.61 368.15 1964.78 372.24 C 1969.13 377.78 1968.23 385.87 1964.53 391.50 C 1961.24 396.66 1955.34 400.93 1948.94 399.24 C 1943.09 397.07 1940.86 391.04 1941.11 385.18 C 1940.85 378.09 1944.57 371.02 1951.39 368.45 Z" id="p53" />
<path d="M 1925.49 381.60 C 1929.19 380.49 1933.14 381.29 1935.68 384.31 C 1941.07 390.42 1939.92 400.73 1934.37 406.37 C 1932.36 408.37 1928.89 409.82 1926.12 408.83 C 1923.30 408.09 1921.23 405.41 1920.09 402.87 C 1918.06 398.14 1917.84 392.55 1919.72 387.74 C 1920.84 385.01 1922.68 382.69 1925.49 381.60 Z" id="p54" />
<path d="M 1990.43 386.48 C 1993.57 385.26 1997.05 385.10 1999.92 387.09 C 2002.43 389.07 2002.89 392.36 2001.92 395.28 C 2000.05 400.89 1995.39 405.56 1990.08 408.03 C 1987.78 408.98 1984.59 409.89 1982.24 408.71 C 1979.71 407.68 1978.52 404.57 1978.66 402.00 C 1979.23 395.19 1984.08 388.94 1990.43 386.48 Z" id="p55" />
<path d="M 1907.30 395.26 C 1909.93 393.72 1912.94 395.16 1914.78 397.22 C 1918.18 401.05 1918.44 406.67 1917.26 411.42 C 1916.14 414.59 1913.17 418.09 1909.45 416.53 C 1905.80 414.96 1903.97 409.66 1903.55 406.02 C 1903.15 402.50 1903.74 397.08 1907.30 395.26 Z" id="p56" />
<path d="M 1996.45 407.55 C 1998.28 406.99 2000.49 406.86 2002.23 407.79 C 2003.27 409.25 2003.58 410.23 2002.95 412.01 C 2001.84 415.38 1998.85 418.20 1995.89 420.02 C 1993.97 421.16 1991.04 422.32 1988.87 421.30 C 1986.87 420.09 1987.20 417.79 1987.75 415.85 C 1989.22 412.05 1992.66 408.94 1996.45 407.55 Z" id="p57" />
</defs>
<g>
<use fill="#ffffff" xlink:href="#p0" />
<use fill="#3a3a3c" xlink:href="#p1" />
<use fill="#3a3a3c" xlink:href="#p2" />
<use fill="#3a3a3c" xlink:href="#p3" />
<use fill="#3a3a3c" xlink:href="#p4" />
<use fill="#3a3a3c" xlink:href="#p5" />
<use fill="#3a3a3c" xlink:href="#p6" />
<use fill="#3a3a3c" xlink:href="#p7" />
<use fill="#3a3a3c" xlink:href="#p8" />
<use fill="#3a3a3c" xlink:href="#p9" />
<use fill="#3a3a3c" xlink:href="#p10" />
<use fill="#3a3a3c" xlink:href="#p11" />
<use fill="#3a3a3c" xlink:href="#p12" />
<use fill="#3a3a3c" xlink:href="#p13" />
<use fill="#3a3a3c" xlink:href="#p14" />
<use fill="#3a3a3c" xlink:href="#p15" />
<use fill="#3a3a3c" xlink:href="#p16" />
<use fill="#3a3a3c" xlink:href="#p17" />
<use fill="#3a3a3c" xlink:href="#p18" />
<use fill="#3a3a3c" xlink:href="#p19" />
<use fill="#3a3a3c" xlink:href="#p20" />
<use fill="#3a3a3c" xlink:href="#p21" />
<use fill="#3a3a3c" xlink:href="#p22" />
<use fill="#3a3a3c" xlink:href="#p23" />
<use fill="#3a3a3c" xlink:href="#p24" />
<use fill="#ffffff" xlink:href="#p25" />
<use fill="#3a3a3c" xlink:href="#p26" />
<use fill="#3a3a3c" xlink:href="#p27" />
<use fill="#3a3a3c" xlink:href="#p28" />
<use fill="#3a3a3c" xlink:href="#p29" />
<use fill="#3a3a3c" xlink:href="#p30" />
<use fill="#3a3a3c" xlink:href="#p31" />
<use fill="#3a3a3c" xlink:href="#p32" />
<use fill="#3a3a3c" xlink:href="#p33" />
<use fill="#3a3a3c" xlink:href="#p34" />
<use fill="#3a3a3c" xlink:href="#p35" />
<use fill="#3a3a3c" xlink:href="#p36" />
<use fill="#3a3a3c" xlink:href="#p37" />
<use fill="#ffffff" xlink:href="#p38" />
<use fill="#ffffff" xlink:href="#p39" />
<use fill="#3a3a3c" xlink:href="#p40" />
<use fill="#ffffff" xlink:href="#p41" />
<use fill="#ffffff" xlink:href="#p42" />
<use fill="#3a3a3c" xlink:href="#p43" />
<use fill="#3a3a3c" xlink:href="#p44" />
<use fill="#3a3a3c" xlink:href="#p45" />
<use fill="#3a3a3c" xlink:href="#p46" />
<use fill="#3a3a3c" xlink:href="#p47" />
<use fill="#3a3a3c" xlink:href="#p48" />
<use fill="#3a3a3c" xlink:href="#p49" />
<use fill="#3a3a3c" xlink:href="#p50" />
<use fill="#3a3a3c" xlink:href="#p51" />
<use fill="#3a3a3c" xlink:href="#p52" />
<use fill="#3a3a3c" xlink:href="#p53" />
<use fill="#3a3a3c" xlink:href="#p54" />
<use fill="#3a3a3c" xlink:href="#p55" />
<use fill="#3a3a3c" xlink:href="#p56" />
<use fill="#3a3a3c" xlink:href="#p57" />
</g>
</svg>