<?xml version="1.0" encoding="UTF-8" standalone="no"?>
<!DOCTYPE svg PUBLIC "-//W3C//DTD SVG 1.1//EN" "http://www.w3.org/Graphics/SVG/1.1/DTD/svg11.dtd">
<svg xmlns="http://www.w3.org/2000/svg" version="1.1" viewBox="0 0 256 256" width="120.0pt" height="120.0pt" xmlns:xlink="http://www.w3.org/1999/xlink">
<defs>
<path d="M 0.00 0.00 L 123.48 0.00 C 120.32 0.39 117.17 0.65 114.00 0.90 C 90.26 3.41 67.33 12.80 48.66 27.67 C 27.94 44.04 12.46 66.82 5.19 92.24 C 2.05 102.38 0.96 112.72 0.00 123.24 L 0.00 0.00 Z" id="p0" />
<path d="M 123.48 0.00 L 132.76 0.00 L 133.70 0.11 C 146.58 1.05 159.22 3.16 171.38 7.64 C 197.13 16.84 219.57 34.59 234.66 57.37 C 245.03 72.96 251.89 90.91 254.53 109.45 C 255.29 114.09 255.36 118.81 256.00 123.48 L 256.00 132.76 C 255.60 135.83 255.33 138.91 255.10 142.00 C 252.59 165.74 243.20 188.67 228.33 207.34 C 211.95 228.06 189.17 243.54 163.75 250.81 C 153.54 253.97 143.12 255.08 132.52 256.00 L 123.24 256.00 C 120.17 255.60 117.09 255.33 114.00 255.10 C 90.26 252.59 67.33 243.20 48.66 228.33 C 27.94 211.95 12.45 189.16 5.19 163.74 C 2.03 153.53 0.92 143.11 0.00 132.52 L 0.00 123.24 C 0.96 112.72 2.05 102.38 5.19 92.24 C 12.46 66.82 27.94 44.04 48.66 27.67 C 67.33 12.80 90.26 3.41 114.00 0.90 C 117.17 0.65 120.32 0.39 123.48 0.00 Z M 253.10 144.99 C 254.73 136.53 253.74 127.59 254.00 119.00 C 251.69 88.76 238.40 59.57 216.70 38.30 C 195.53 17.18 166.77 4.28 137.00 2.00 C 128.07 2.24 118.71 1.26 109.98 3.05 C 78.73 7.59 49.52 24.11 29.81 48.82 C 15.59 66.32 6.34 87.69 3.05 109.98 C 1.26 118.71 2.24 128.07 2.00 137.00 C 4.56 171.05 21.19 203.66 47.69 225.28 C 65.68 240.24 87.85 249.86 111.01 253.10 C 117.02 254.41 122.91 253.90 129.00 254.02 C 134.11 253.92 139.05 254.33 144.10 253.25 C 167.10 250.14 189.16 240.86 207.18 226.19 C 232.17 206.26 248.75 176.63 253.10 144.99 Z" id="p1" />
<path d="M 132.76 0.00 L 256.00 0.00 L 256.00 123.48 C 255.36 118.81 255.29 114.09 254.53 109.45 C 251.89 90.91 245.03 72.96 234.66 57.37 C 219.57 34.59 197.13 16.84 171.38 7.64 C 159.22 3.16 146.58 1.05 133.70 0.11 L 132.76 0.00 Z" id="p2" />
<path d="M 137.00 2.00 C 166.77 4.28 195.53 17.18 216.70 38.30 C 238.40 59.57 251.69 88.76 254.00 119.00 C 253.74 127.59 254.73 136.53 253.10 144.99 C 248.75 176.63 232.17 206.26 207.18 226.19 C 189.16 240.86 167.10 250.14 144.10 253.25 C 139.05 254.33 134.11 253.92 129.00 254.02 C 122.91 253.90 117.02 254.41 111.01 253.10 C 87.85 249.86 65.68 240.24 47.69 225.28 C 21.19 203.66 4.56 171.05 2.00 137.00 C 2.24 128.07 1.26 118.71 3.05 109.98 C 6.34 87.69 15.59 66.32 29.81 48.82 C 49.52 24.11 78.73 7.59 109.98 3.05 C 118.71 1.26 128.07 2.24 137.00 2.00 Z M 21.43 107.78 C 12.86 111.11 7.09 119.77 7.64 129.01 C 7.99 138.92 15.45 147.19 25.01 149.32 C 34.13 151.33 43.77 146.92 48.62 139.00 C 45.33 134.73 41.51 130.96 38.04 126.86 L 37.73 126.50 C 40.00 121.99 42.35 117.47 44.37 112.85 C 44.64 111.66 42.66 110.83 41.89 110.14 C 35.67 106.07 28.43 105.15 21.43 107.78 Z M 126.57 127.48 C 120.84 121.44 115.37 115.15 109.75 109.01 C 109.01 108.23 108.28 107.45 107.54 106.68 C 107.36 121.05 107.58 135.42 107.42 149.80 C 120.48 149.78 133.54 149.86 146.60 149.75 L 146.82 149.76 C 146.56 135.23 146.78 120.69 146.71 106.16 C 142.83 110.14 139.23 114.39 135.47 118.48 C 132.53 121.61 130.11 124.95 126.57 127.48 Z M 171.14 107.20 C 170.71 112.55 170.82 117.99 171.21 123.34 L 170.82 123.53 C 166.01 125.82 160.96 127.57 156.11 129.80 C 157.45 138.57 162.50 145.30 170.85 148.46 C 181.27 152.34 193.48 147.07 198.00 136.98 C 201.61 129.23 200.08 120.20 194.68 113.70 C 188.76 107.03 179.67 104.51 171.14 107.20 Z M 54.15 149.73 C 68.72 149.88 83.29 149.76 97.86 149.79 C 90.16 135.41 82.71 120.86 74.98 106.50 C 67.88 120.83 61.23 135.39 54.15 149.73 Z M 223.16 106.25 C 216.35 120.81 209.30 135.25 202.42 149.77 C 216.98 149.86 231.55 149.72 246.11 149.85 C 238.40 135.35 230.79 120.79 223.16 106.25 Z" id="p3" />
<path d="M 41.89 110.14 C 42.66 110.83 44.64 111.66 44.37 112.85 C 42.35 117.47 40.00 121.99 37.73 126.50 C 32.48 120.11 26.53 114.30 21.43 107.78 C 28.43 105.15 35.67 106.07 41.89 110.14 Z" id="p4" />
<path d="M 146.71 106.16 C 146.78 120.69 146.56 135.23 146.82 149.76 L 146.60 149.75 C 140.00 142.36 133.42 134.93 126.72 127.64 L 126.57 127.48 C 130.11 124.95 132.53 121.61 135.47 118.48 C 139.23 114.39 142.83 110.14 146.71 106.16 Z" id="p5" />
<path d="M 194.68 113.70 C 186.85 116.92 179.05 120.13 171.21 123.34 C 170.82 117.99 170.71 112.55 171.14 107.20 C 179.67 104.51 188.76 107.03 194.68 113.70 Z" id="p6" />
<path d="M 74.98 106.50 C 82.71 120.86 90.16 135.41 97.86 149.79 C 83.29 149.76 68.72 149.88 54.15 149.73 C 61.23 135.39 67.88 120.83 74.98 106.50 Z" id="p7" />
<path d="M 107.54 106.68 C 108.28 107.45 109.01 108.23 109.75 109.01 C 109.16 108.61 108.56 108.22 107.97 107.83 C 107.82 121.28 107.69 134.81 108.04 148.25 C 114.18 141.31 120.48 134.49 126.72 127.64 C 133.42 134.93 140.00 142.36 146.60 149.75 C 133.54 149.86 120.48 149.78 107.42 149.80 C 107.58 135.42 107.36 121.05 107.54 106.68 Z" id="p8" />
<path d="M 223.16 106.25 C 230.79 120.79 238.40 135.35 246.11 149.85 C 231.55 149.72 216.98 149.86 202.42 149.77 C 209.30 135.25 216.35 120.81 223.16 106.25 Z" id="p9" />
<path d="M 21.43 107.78 C 26.53 114.30 32.48 120.11 37.73 126.50 L 38.04 126.86 C 33.84 134.01 30.75 141.80 26.82 149.10 L 25.01 149.32 C 15.45 147.19 7.99 138.92 7.64 129.01 C 7.09 119.77 12.86 111.11 21.43 107.78 Z" id="p10" />
<path d="M 107.97 107.83 C 108.56 108.22 109.16 108.61 109.75 109.01 C 115.37 115.15 120.84 121.44 126.57 127.48 L 126.72 127.64 C 120.48 134.49 114.18 141.31 108.04 148.25 C 107.69 134.81 107.82 121.28 107.97 107.83 Z" id="p11" />
<path d="M 194.68 113.70 C 200.08 120.20 201.61 129.23 198.00 136.98 C 193.48 147.07 181.27 152.34 170.85 148.46 C 170.93 140.15 170.95 131.84 170.82 123.53 L 171.21 123.34 C 179.05 120.13 186.85 116.92 194.68 113.70 Z" id="p12" />
<path d="M 170.82 123.53 C 170.95 131.84 170.93 140.15 170.85 148.46 C 162.50 145.30 157.45 138.57 156.11 129.80 C 160.96 127.57 166.01 125.82 170.82 123.53 Z" id="p13" />
<path d="M 38.04 126.86 C 41.51 130.96 45.33 134.73 48.62 139.00 C 43.77 146.92 34.13 151.33 25.01 149.32 L 26.82 149.10 C 30.75 141.80 33.84 134.01 38.04 126.86 Z" id="p14" />
<path d="M 0.00 132.52 C 0.92 143.11 2.03 153.53 5.19 163.74 C 12.45 189.16 27.94 211.95 48.66 228.33 C 67.33 243.20 90.26 252.59 114.00 255.10 C 117.09 255.33 120.17 255.60 123.24 256.00 L 0.00 256.00 L 0.00 132.52 Z" id="p15" />
<path d="M 256.00 132.76 L 256.00 256.00 L 132.52 256.00 C 143.12 255.08 153.54 253.97 163.75 250.81 C 189.17 243.54 211.95 228.06 228.33 207.34 C 243.20 188.67 252.59 165.74 255.10 142.00 C 255.33 138.91 255.60 135.83 256.00 132.76 Z" id="p16" />
</defs>
<g stroke-width="10pt">
<use stroke="#ffffff" xlink:href="#p0" />
<use stroke="#5073b9" xlink:href="#p1" />
<use stroke="#ffffff" xlink:href="#p2" />
<use stroke="#ffffff" xlink:href="#p3" />
<use stroke="#0042c7" xlink:href="#p4" />
<use stroke="#c7c7c7" xlink:href="#p5" />
<use stroke="#c7c7c7" xlink:href="#p6" />
<use stroke="#003399" xlink:href="#p7" />
<use stroke="#516999" xlink:href="#p8" />
<use stroke="#003399" xlink:href="#p9" />
<use stroke="#516999" xlink:href="#p10" />
<use stroke="#0042c7" xlink:href="#p11" />
<use stroke="#516999" xlink:href="#p12" />
<use stroke="#0042c7" xlink:href="#p13" />
<use stroke="#c7c7c7" xlink:href="#p14" />
<use stroke="#ffffff" xlink:href="#p15" />
<use stroke="#ffffff" xlink:href="#p16" />
</g>
<g>
<use fill="#ffffff" xlink:href="#p0" />
<use fill="#5073b9" xlink:href="#p1" />
<use fill="#ffffff" xlink:href="#p2" />
<use fill="#ffffff" xlink:href="#p3" />
<use fill="#0042c7" xlink:href="#p4" />
<use fill="#c7c7c7" xlink:href="#p5" />
<use fill="#c7c7c7" xlink:href="#p6" />
<use fill="#003399" xlink:href="#p7" />
<use fill="#516999" xlink:href="#p8" />
<use fill="#003399" xlink:href="#p9" />
<use fill="#516999" xlink:href="#p10" />
<use fill="#0042c7" xlink:href="#p11" />
<use fill="#516999" xlink:href="#p12" />
<use fill="#0042c7" xlink:href="#p13" />
<use fill="#c7c7c7" xlink:href="#p14" />
<use fill="#ffffff" xlink:href="#p15" />
<use fill="#ffffff" xlink:href="#p16" />
</g>
</svg>