<?xml version="1.0" encoding="UTF-8" standalone="no"?>
<!DOCTYPE svg PUBLIC "-//W3C//DTD SVG 1.1//EN" "http://www.w3.org/Graphics/SVG/1.1/DTD/svg11.dtd">
<svg xmlns="http://www.w3.org/2000/svg" version="1.1" viewBox="0 0 1056 480" width="125.0pt" height="125.0pt" xmlns:xlink="http://www.w3.org/1999/xlink">
<defs>
<path d="M 0.00 0.00 L 1056.00 0.00 L 1056.00 480.00 L 0.00 480.00 L 0.00 0.00 Z M 74.51 335.68 C 77.94 336.68 81.44 336.79 85.00 336.70 C 91.35 336.54 97.70 336.78 104.04 336.66 C 105.63 336.47 107.26 336.78 108.31 335.33 C 109.21 332.74 109.17 329.72 109.22 327.00 C 109.14 311.67 109.24 296.33 109.14 281.00 C 109.30 279.10 108.87 276.89 110.46 275.50 C 115.10 270.93 119.92 266.51 124.72 262.11 C 142.90 285.30 161.18 308.41 179.31 331.65 C 181.21 333.91 182.83 336.48 186.12 336.56 C 194.73 336.86 203.38 336.53 212.00 336.66 C 215.73 336.60 219.65 336.97 223.33 336.32 C 225.52 334.59 224.26 331.95 222.85 330.18 C 201.59 303.86 179.88 276.81 158.61 250.40 C 155.32 246.38 152.06 242.35 148.94 238.20 C 172.31 215.28 196.25 192.50 219.66 169.61 C 221.16 168.17 221.01 166.35 220.52 164.49 C 219.20 163.06 216.79 163.44 215.01 163.30 C 205.01 163.36 195.00 163.38 185.00 163.30 C 183.30 163.35 181.43 163.28 179.79 163.80 C 177.69 164.75 175.92 166.69 174.29 168.29 C 152.65 190.30 130.88 212.10 109.23 234.09 C 109.12 187.06 109.22 140.03 109.18 93.00 C 109.23 86.78 109.41 80.63 108.47 74.46 C 101.19 73.09 94.52 73.93 87.00 73.69 C 83.52 73.79 79.61 73.27 76.26 74.26 C 74.24 75.11 74.58 77.16 74.43 78.96 C 74.53 164.52 74.39 250.13 74.51 335.68 Z M 789.62 74.41 C 782.64 73.19 776.02 73.87 769.00 73.70 C 765.40 73.74 761.62 73.38 758.07 74.04 C 755.59 74.32 755.70 77.08 755.53 78.98 C 755.53 159.99 755.54 240.99 755.52 322.00 C 755.57 326.00 755.27 330.09 755.74 334.06 C 755.94 335.55 756.83 336.47 758.36 336.48 C 764.54 336.96 770.80 336.50 777.00 336.66 C 780.67 336.58 784.61 337.04 788.21 336.28 C 790.04 335.75 789.62 334.57 789.93 333.03 C 790.36 328.05 790.07 323.00 790.12 318.00 C 790.11 242.33 790.12 166.67 790.11 91.00 C 790.18 85.45 790.25 79.94 789.62 74.41 Z M 252.75 207.82 C 258.65 204.71 263.89 200.76 270.00 198.00 C 281.77 192.43 295.29 189.44 308.25 191.74 C 316.40 193.23 323.63 198.01 327.81 205.22 C 331.55 211.15 332.40 217.73 332.48 224.62 C 326.78 225.83 320.68 226.14 315.00 226.94 C 299.56 229.08 283.23 231.44 268.53 236.75 C 257.90 240.62 248.07 245.91 240.47 254.46 C 232.91 262.77 229.15 273.82 229.31 285.00 C 229.03 295.69 231.70 306.31 237.80 315.17 C 243.48 323.74 252.16 330.33 261.43 334.59 C 276.68 341.38 293.95 341.49 310.01 337.81 C 318.01 335.96 325.25 332.34 332.12 327.94 C 332.26 330.34 332.17 332.87 332.72 335.22 C 334.66 337.13 338.49 336.55 341.00 336.70 C 348.85 336.43 356.79 337.03 364.61 336.44 C 367.31 336.20 367.13 333.03 367.34 331.02 C 367.36 296.36 367.32 261.66 367.35 227.00 C 367.03 216.32 366.05 206.03 361.94 196.07 C 357.53 185.01 349.43 175.80 339.19 169.77 C 325.09 161.25 307.20 158.62 291.01 160.17 C 272.59 161.67 255.15 168.63 239.84 178.81 C 237.86 180.18 236.09 181.44 235.67 184.00 C 237.03 187.09 239.38 189.89 241.32 192.66 C 245.22 197.89 248.18 203.14 252.75 207.82 Z M 511.27 325.76 C 511.26 338.59 512.19 351.51 508.94 363.97 C 506.68 372.54 501.98 380.50 494.59 385.60 C 486.42 391.34 475.82 393.33 466.00 393.57 C 453.09 393.87 441.14 387.63 431.35 379.69 C 427.95 377.10 425.16 373.78 421.73 371.26 C 419.81 369.85 417.96 371.07 416.40 372.34 C 412.87 375.48 409.76 379.08 406.33 382.33 C 403.48 385.39 399.60 388.21 397.66 391.94 C 396.79 394.72 399.34 396.22 401.05 397.90 C 407.87 403.41 414.70 409.15 422.11 413.87 C 435.83 421.98 452.11 425.88 468.00 425.41 C 483.74 424.92 499.02 421.97 512.53 413.54 C 524.63 405.97 533.87 394.43 538.96 381.13 C 543.96 368.15 545.92 353.86 545.72 340.00 C 545.70 282.66 545.71 225.30 545.72 167.96 C 545.70 166.85 545.58 165.76 545.36 164.70 C 543.93 163.15 541.94 163.47 540.02 163.32 C 532.34 163.34 524.66 163.36 516.99 163.31 C 515.21 163.50 512.87 163.04 511.72 164.74 C 511.08 167.82 511.36 171.14 511.27 174.28 C 504.76 170.27 498.36 166.36 491.00 164.06 C 476.49 159.37 460.40 158.47 445.46 161.48 C 432.88 164.01 421.28 170.14 412.20 179.21 C 398.54 193.19 389.97 211.49 387.26 230.81 C 384.72 248.34 385.51 266.72 390.41 283.78 C 395.85 302.50 407.61 320.37 424.61 330.41 C 436.91 337.77 450.80 340.36 465.00 340.24 C 476.05 339.86 486.73 338.37 496.95 333.96 C 502.10 331.78 506.59 328.74 511.27 325.76 Z M 692.40 325.84 C 692.21 338.83 693.74 353.26 689.79 365.54 C 687.43 373.39 683.01 380.46 676.30 385.29 C 668.13 391.31 656.96 393.42 647.00 393.56 C 634.25 393.71 622.76 387.73 613.01 379.98 C 609.46 377.26 606.48 373.79 602.85 371.19 C 601.21 369.98 599.42 370.95 598.02 372.03 C 595.30 374.26 592.95 376.97 590.44 379.44 C 586.07 384.00 581.42 387.62 578.05 393.07 C 579.93 395.52 582.00 397.67 584.41 399.60 C 590.69 404.60 597.00 409.95 603.85 414.16 C 617.81 422.22 633.92 425.94 650.00 425.39 C 666.16 424.84 681.84 421.54 695.47 412.47 C 707.81 404.29 716.74 391.90 721.42 377.92 C 726.67 362.90 727.36 346.76 727.19 331.00 C 727.19 278.67 727.18 226.33 727.19 174.00 C 727.12 170.88 727.16 167.57 726.39 164.53 C 725.22 163.25 723.62 163.48 722.04 163.34 C 717.03 163.24 712.01 163.41 707.00 163.35 C 702.01 163.39 697.45 162.80 692.60 164.37 C 692.53 167.64 692.45 170.91 692.37 174.17 C 686.12 170.26 679.89 166.53 672.83 164.23 C 658.85 159.59 643.49 158.60 628.98 161.05 C 615.79 163.31 603.37 169.38 593.91 178.92 C 580.91 191.71 572.44 209.14 569.20 227.01 C 567.00 237.87 567.13 248.94 567.55 260.01 C 568.64 276.85 573.47 293.96 582.90 308.08 C 591.20 320.60 602.91 330.66 617.17 335.74 C 633.42 341.48 651.89 341.40 668.51 337.31 C 677.30 335.17 684.97 330.87 692.40 325.84 Z M 851.09 262.32 C 887.72 262.24 924.36 262.32 961.00 262.28 C 967.32 262.24 973.37 262.63 979.66 261.72 C 981.50 246.36 981.31 229.53 976.15 214.79 C 970.73 198.54 959.53 184.27 945.72 174.27 C 933.24 165.26 918.33 160.52 903.00 159.85 C 886.47 159.20 869.12 162.26 854.76 170.80 C 842.51 177.98 832.87 188.44 825.60 200.54 C 817.11 214.88 813.20 231.38 813.43 248.00 C 813.13 266.37 817.84 285.55 828.18 300.89 C 836.77 313.83 848.86 324.36 862.81 331.18 C 879.47 339.24 898.75 341.53 917.03 339.53 C 935.42 337.72 953.20 331.08 968.07 320.06 C 969.01 319.22 970.49 318.26 970.48 316.86 C 970.70 315.11 968.74 313.52 967.70 312.30 C 962.16 306.84 956.94 301.02 951.31 295.66 C 949.53 293.97 948.00 293.58 945.75 294.77 C 940.59 297.82 935.74 301.13 929.98 303.05 C 919.61 307.14 908.96 307.30 897.99 306.54 C 884.26 305.22 870.73 298.83 861.93 288.04 C 855.84 280.69 852.27 271.77 851.09 262.32 Z M 970.50 163.19 C 972.24 163.64 973.98 164.05 975.74 164.40 C 975.72 168.14 975.71 171.88 975.70 175.62 C 976.62 175.65 977.54 175.67 978.45 175.70 C 978.47 171.88 978.47 168.06 978.49 164.24 C 980.00 164.04 981.50 163.83 983.00 163.62 C 982.74 162.98 982.49 162.34 982.23 161.70 C 978.03 161.78 974.32 160.97 970.50 163.19 Z M 984.26 161.87 C 984.28 166.48 984.29 171.08 984.31 175.69 C 985.06 175.68 985.82 175.67 986.58 175.67 C 986.64 172.91 986.72 170.15 986.86 167.40 C 988.08 170.15 989.23 172.92 990.36 175.71 C 991.06 175.68 991.77 175.66 992.47 175.64 C 993.54 172.64 994.55 169.62 995.54 166.60 C 995.75 169.68 995.97 172.76 996.20 175.83 C 996.95 175.76 997.70 175.68 998.45 175.60 C 998.40 171.00 998.82 166.25 998.15 161.69 C 996.18 161.56 995.43 161.21 994.60 163.19 C 993.34 166.07 992.36 169.06 991.25 171.99 C 990.13 168.45 988.91 164.95 987.48 161.53 C 986.41 161.64 985.33 161.76 984.26 161.87 Z" id="p0" />
<path d="M 76.26 74.26 C 79.61 73.27 83.52 73.79 87.00 73.69 C 94.52 73.93 101.19 73.09 108.47 74.46 C 109.41 80.63 109.23 86.78 109.18 93.00 C 109.22 140.03 109.12 187.06 109.23 234.09 C 130.88 212.10 152.65 190.30 174.29 168.29 C 175.92 166.69 177.69 164.75 179.79 163.80 C 181.43 163.28 183.30 163.35 185.00 163.30 C 195.00 163.38 205.01 163.36 215.01 163.30 C 216.79 163.44 219.20 163.06 220.52 164.49 C 221.01 166.35 221.16 168.17 219.66 169.61 C 196.25 192.50 172.31 215.28 148.94 238.20 C 152.06 242.35 155.32 246.38 158.61 250.40 C 179.88 276.81 201.59 303.86 222.85 330.18 C 224.26 331.95 225.52 334.59 223.33 336.32 C 219.65 336.97 215.73 336.60 212.00 336.66 C 203.38 336.53 194.73 336.86 186.12 336.56 C 182.83 336.48 181.21 333.91 179.31 331.65 C 161.18 308.41 142.90 285.30 124.72 262.11 C 119.92 266.51 115.10 270.93 110.46 275.50 C 108.87 276.89 109.30 279.10 109.14 281.00 C 109.24 296.33 109.14 311.67 109.22 327.00 C 109.17 329.72 109.21 332.74 108.31 335.33 C 107.26 336.78 105.63 336.47 104.04 336.66 C 97.70 336.78 91.35 336.54 85.00 336.70 C 81.44 336.79 77.94 336.68 74.51 335.68 C 74.39 250.13 74.53 164.52 74.43 78.96 C 74.58 77.16 74.24 75.11 76.26 74.26 Z" id="p1" />
<path d="M 758.07 74.04 C 761.62 73.38 765.40 73.74 769.00 73.70 C 776.02 73.87 782.64 73.19 789.62 74.41 C 790.25 79.94 790.18 85.45 790.11 91.00 C 790.12 166.67 790.11 242.33 790.12 318.00 C 790.07 323.00 790.36 328.05 789.93 333.03 C 789.62 334.57 790.04 335.75 788.21 336.28 C 784.61 337.04 780.67 336.58 777.00 336.66 C 770.80 336.50 764.54 336.96 758.36 336.48 C 756.83 336.47 755.94 335.55 755.74 334.06 C 755.27 330.09 755.57 326.00 755.52 322.00 C 755.54 240.99 755.53 159.99 755.53 78.98 C 755.70 77.08 755.59 74.32 758.07 74.04 Z" id="p2" />
<path d="M 291.01 160.17 C 307.20 158.62 325.09 161.25 339.19 169.77 C 349.43 175.80 357.53 185.01 361.94 196.07 C 366.05 206.03 367.03 216.32 367.35 227.00 C 367.32 261.66 367.36 296.36 367.34 331.02 C 367.13 333.03 367.31 336.20 364.61 336.44 C 356.79 337.03 348.85 336.43 341.00 336.70 C 338.49 336.55 334.66 337.13 332.72 335.22 C 332.17 332.87 332.26 330.34 332.12 327.94 C 325.25 332.34 318.01 335.96 310.01 337.81 C 293.95 341.49 276.68 341.38 261.43 334.59 C 252.16 330.33 243.48 323.74 237.80 315.17 C 231.70 306.31 229.03 295.69 229.31 285.00 C 229.15 273.82 232.91 262.77 240.47 254.46 C 248.07 245.91 257.90 240.62 268.53 236.75 C 283.23 231.44 299.56 229.08 315.00 226.94 C 320.68 226.14 326.78 225.83 332.48 224.62 C 332.40 217.73 331.55 211.15 327.81 205.22 C 323.63 198.01 316.40 193.23 308.25 191.74 C 295.29 189.44 281.77 192.43 270.00 198.00 C 263.89 200.76 258.65 204.71 252.75 207.82 C 248.18 203.14 245.22 197.89 241.32 192.66 C 239.38 189.89 237.03 187.09 235.67 184.00 C 236.09 181.44 237.86 180.18 239.84 178.81 C 255.15 168.63 272.59 161.67 291.01 160.17 Z M 332.35 294.27 C 332.17 281.57 332.38 268.86 332.23 256.16 C 318.41 257.53 304.45 259.30 290.97 262.71 C 282.37 264.99 272.56 268.66 267.04 276.03 C 261.66 283.25 262.92 293.57 269.05 299.93 C 276.04 306.85 285.40 309.10 295.00 308.70 C 308.87 309.16 322.55 304.21 332.35 294.27 Z" id="p3" />
<path d="M 491.00 164.06 C 498.36 166.36 504.76 170.27 511.27 174.28 C 511.36 171.14 511.08 167.82 511.72 164.74 C 512.87 163.04 515.21 163.50 516.99 163.31 C 524.66 163.36 532.34 163.34 540.02 163.32 C 541.94 163.47 543.93 163.15 545.36 164.70 C 545.58 165.76 545.70 166.85 545.72 167.96 C 545.71 225.30 545.70 282.66 545.72 340.00 C 545.92 353.86 543.96 368.15 538.96 381.13 C 533.87 394.43 524.63 405.97 512.53 413.54 C 499.02 421.97 483.74 424.92 468.00 425.41 C 452.11 425.88 435.83 421.98 422.11 413.87 C 414.70 409.15 407.87 403.41 401.05 397.90 C 399.34 396.22 396.79 394.72 397.66 391.94 C 399.60 388.21 403.48 385.39 406.33 382.33 C 409.76 379.08 412.87 375.48 416.40 372.34 C 417.96 371.07 419.81 369.85 421.73 371.26 C 425.16 373.78 427.95 377.10 431.35 379.69 C 441.14 387.63 453.09 393.87 466.00 393.57 C 475.82 393.33 486.42 391.34 494.59 385.60 C 501.98 380.50 506.68 372.54 508.94 363.97 C 512.19 351.51 511.26 338.59 511.27 325.76 C 506.59 328.74 502.10 331.78 496.95 333.96 C 486.73 338.37 476.05 339.86 465.00 340.24 C 450.80 340.36 436.91 337.77 424.61 330.41 C 407.61 320.37 395.85 302.50 390.41 283.78 C 385.51 266.72 384.72 248.34 387.26 230.81 C 389.97 211.49 398.54 193.19 412.20 179.21 C 421.28 170.14 432.88 164.01 445.46 161.48 C 460.40 158.47 476.49 159.37 491.00 164.06 Z M 511.35 270.00 C 511.34 253.99 511.32 238.00 511.38 222.00 C 511.59 216.60 508.30 211.93 505.11 207.90 C 498.80 200.40 489.98 196.44 480.48 194.75 C 470.32 193.06 459.04 192.92 449.20 196.28 C 440.41 199.22 433.13 205.71 428.83 213.88 C 424.08 222.82 422.38 232.98 421.78 242.99 C 421.19 255.40 421.98 267.89 426.43 279.61 C 430.40 290.01 438.62 299.23 449.05 303.39 C 456.81 306.52 464.77 306.67 473.00 306.06 C 481.13 305.40 489.30 303.54 496.38 299.35 C 502.70 295.58 508.07 289.64 510.71 282.73 C 511.89 278.74 511.22 274.13 511.35 270.00 Z" id="p4" />
<path d="M 672.83 164.23 C 679.89 166.53 686.12 170.26 692.37 174.17 C 692.45 170.91 692.53 167.64 692.60 164.37 C 697.45 162.80 702.01 163.39 707.00 163.35 C 712.01 163.41 717.03 163.24 722.04 163.34 C 723.62 163.48 725.22 163.25 726.39 164.53 C 727.16 167.57 727.12 170.88 727.19 174.00 C 727.18 226.33 727.19 278.67 727.19 331.00 C 727.36 346.76 726.67 362.90 721.42 377.92 C 716.74 391.90 707.81 404.29 695.47 412.47 C 681.84 421.54 666.16 424.84 650.00 425.39 C 633.92 425.94 617.81 422.22 603.85 414.16 C 597.00 409.95 590.69 404.60 584.41 399.60 C 582.00 397.67 579.93 395.52 578.05 393.07 C 581.42 387.62 586.07 384.00 590.44 379.44 C 592.95 376.97 595.30 374.26 598.02 372.03 C 599.42 370.95 601.21 369.98 602.85 371.19 C 606.48 373.79 609.46 377.26 613.01 379.98 C 622.76 387.73 634.25 393.71 647.00 393.56 C 656.96 393.42 668.13 391.31 676.30 385.29 C 683.01 380.46 687.43 373.39 689.79 365.54 C 693.74 353.26 692.21 338.83 692.40 325.84 C 684.97 330.87 677.30 335.17 668.51 337.31 C 651.89 341.40 633.42 341.48 617.17 335.74 C 602.91 330.66 591.20 320.60 582.90 308.08 C 573.47 293.96 568.64 276.85 567.55 260.01 C 567.13 248.94 567.00 237.87 569.20 227.01 C 572.44 209.14 580.91 191.71 593.91 178.92 C 603.37 169.38 615.79 163.31 628.98 161.05 C 643.49 158.60 658.85 159.59 672.83 164.23 Z M 692.48 229.00 C 692.33 224.56 693.24 218.99 691.10 215.01 C 687.66 208.08 681.95 202.38 675.00 198.99 C 667.11 195.09 657.72 193.73 649.00 193.60 C 640.57 193.48 632.31 194.82 624.80 198.79 C 617.43 202.75 612.01 209.33 608.65 216.93 C 604.01 227.54 602.99 238.54 603.16 250.00 C 602.92 263.12 604.84 276.71 612.00 287.98 C 616.95 295.38 624.34 301.70 632.94 304.33 C 640.96 306.94 650.20 306.62 658.47 305.61 C 669.19 304.17 680.36 299.92 687.14 291.11 C 689.72 287.63 692.65 283.53 692.49 279.01 C 692.46 262.34 692.46 245.67 692.48 229.00 Z" id="p5" />
<path d="M 903.00 159.85 C 918.33 160.52 933.24 165.26 945.72 174.27 C 959.53 184.27 970.73 198.54 976.15 214.79 C 981.31 229.53 981.50 246.36 979.66 261.72 C 973.37 262.63 967.32 262.24 961.00 262.28 C 924.36 262.32 887.72 262.24 851.09 262.32 C 852.27 271.77 855.84 280.69 861.93 288.04 C 870.73 298.83 884.26 305.22 897.99 306.54 C 908.96 307.30 919.61 307.14 929.98 303.05 C 935.74 301.13 940.59 297.82 945.75 294.77 C 948.00 293.58 949.53 293.97 951.31 295.66 C 956.94 301.02 962.16 306.84 967.70 312.30 C 968.74 313.52 970.70 315.11 970.48 316.86 C 970.49 318.26 969.01 319.22 968.07 320.06 C 953.20 331.08 935.42 337.72 917.03 339.53 C 898.75 341.53 879.47 339.24 862.81 331.18 C 848.86 324.36 836.77 313.83 828.18 300.89 C 817.84 285.55 813.13 266.37 813.43 248.00 C 813.20 231.38 817.11 214.88 825.60 200.54 C 832.87 188.44 842.51 177.98 854.76 170.80 C 869.12 162.26 886.47 159.20 903.00 159.85 Z M 851.05 231.23 C 881.98 231.44 912.92 231.38 943.85 231.26 C 943.33 223.40 941.31 215.85 936.58 209.44 C 929.92 200.47 920.00 193.30 908.96 190.96 C 897.01 188.15 884.08 190.09 873.69 196.71 C 861.55 204.49 853.57 217.09 851.05 231.23 Z" id="p6" />
<path d="M 982.23 161.70 C 982.49 162.34 982.74 162.98 983.00 163.62 C 981.50 163.83 980.00 164.04 978.49 164.24 C 978.47 168.06 978.47 171.88 978.45 175.70 C 977.54 175.67 976.62 175.65 975.70 175.62 C 975.71 171.88 975.72 168.14 975.74 164.40 C 973.98 164.05 972.24 163.64 970.50 163.19 C 974.32 160.97 978.03 161.78 982.23 161.70 Z" id="p7" />
<path d="M 984.26 161.87 C 985.33 161.76 986.41 161.64 987.48 161.53 C 988.91 164.95 990.13 168.45 991.25 171.99 C 992.36 169.06 993.34 166.07 994.60 163.19 C 995.43 161.21 996.18 161.56 998.15 161.69 C 998.82 166.25 998.40 171.00 998.45 175.60 C 997.70 175.68 996.95 175.76 996.20 175.83 C 995.97 172.76 995.75 169.68 995.54 166.60 C 994.55 169.62 993.54 172.64 992.47 175.64 C 991.77 175.66 991.06 175.68 990.36 175.71 C 989.23 172.92 988.08 170.15 986.86 167.40 C 986.72 170.15 986.64 172.91 986.58 175.67 C 985.82 175.67 985.06 175.68 984.31 175.69 C 984.29 171.08 984.28 166.48 984.26 161.87 Z" id="p8" />
<path d="M 908.96 190.96 C 920.00 193.30 929.92 200.47 936.58 209.44 C 941.31 215.85 943.33 223.40 943.85 231.26 C 912.92 231.38 881.98 231.44 851.05 231.23 C 853.57 217.09 861.55 204.49 873.69 196.71 C 884.08 190.09 897.01 188.15 908.96 190.96 Z" id="p9" />
<path d="M 480.48 194.75 C 489.98 196.44 498.80 200.40 505.11 207.90 C 508.30 211.93 511.59 216.60 511.38 222.00 C 511.32 238.00 511.34 253.99 511.35 270.00 C 511.22 274.13 511.89 278.74 510.71 282.73 C 508.07 289.64 502.70 295.58 496.38 299.35 C 489.30 303.54 481.13 305.40 473.00 306.06 C 464.77 306.67 456.81 306.52 449.05 303.39 C 438.62 299.23 430.40 290.01 426.43 279.61 C 421.98 267.89 421.19 255.40 421.78 242.99 C 422.38 232.98 424.08 222.82 428.83 213.88 C 433.13 205.71 440.41 199.22 449.20 196.28 C 459.04 192.92 470.32 193.06 480.48 194.75 Z" id="p10" />
<path d="M 649.00 193.60 C 657.72 193.73 667.11 195.09 675.00 198.99 C 681.95 202.38 687.66 208.08 691.10 215.01 C 693.24 218.99 692.33 224.56 692.48 229.00 C 692.46 245.67 692.46 262.34 692.49 279.01 C 692.65 283.53 689.72 287.63 687.14 291.11 C 680.36 299.92 669.19 304.17 658.47 305.61 C 650.20 306.62 640.96 306.94 632.94 304.33 C 624.34 301.70 616.95 295.38 612.00 287.98 C 604.84 276.71 602.92 263.12 603.16 250.00 C 602.99 238.54 604.01 227.54 608.65 216.93 C 612.01 209.33 617.43 202.75 624.80 198.79 C 632.31 194.82 640.57 193.48 649.00 193.60 Z" id="p11" />
<path d="M 332.23 256.16 C 332.38 268.86 332.17 281.57 332.35 294.27 C 322.55 304.21 308.87 309.16 295.00 308.70 C 285.40 309.10 276.04 306.85 269.05 299.93 C 262.92 293.57 261.66 283.25 267.04 276.03 C 272.56 268.66 282.37 264.99 290.97 262.71 C 304.45 259.30 318.41 257.53 332.23 256.16 Z" id="p12" />
</defs>
<g>
<use fill="#ffffff" xlink:href="#p0" />
<use fill="#20beff" xlink:href="#p1" />
<use fill="#20beff" xlink:href="#p2" />
<use fill="#20beff" xlink:href="#p3" />
<use fill="#20beff" xlink:href="#p4" />
<use fill="#20beff" xlink:href="#p5" />
<use fill="#20beff" xlink:href="#p6" />
<use fill="#20beff" xlink:href="#p7" />
<use fill="#20beff" xlink:href="#p8" />
<use fill="#ffffff" xlink:href="#p9" />
<use fill="#ffffff" xlink:href="#p10" />
<use fill="#ffffff" xlink:href="#p11" />
<use fill="#ffffff" xlink:href="#p12" />
</g>
</svg>